<svg width="165" height="85" viewBox="0 0 165 85" fill="none" xmlns="http://www.w3.org/2000/svg">
<path fill-rule="evenodd" clip-rule="evenodd" d="M165 20C165 8.95431 156.046 0 145 0H20C8.95431 0 0 8.9543 0 20V65C0 76.0457 8.95431 85 20 85H145C156.046 85 165 76.0457 165 65V20ZM94.2634 21.7996L90.3664 25.6966C93.5861 28.0533 95.7016 31.839 95.7017 36.1443L95.7016 39.5872V47.01C95.7016 54.1823 89.8839 60 82.7116 60C75.5393 60 69.7216 54.1823 69.7216 47.01V39.5872V36.1443C69.7216 31.839 71.8371 28.0533 75.0568 25.6966L71.1598 21.7996L72.6907 20.2686L76.9681 24.546C78.7125 23.6831 80.6424 23.1542 82.7116 23.1542C84.7807 23.1542 86.7107 23.6831 88.4551 24.546L92.7325 20.2686L94.2634 21.7996Z" fill="black"/>
<path d="M77.1444 34.2885C76.1145 34.2885 75.2887 33.4535 75.2887 32.4328C75.2887 31.4122 76.1145 30.5772 77.1444 30.5772C78.1744 30.5772 79.0001 31.4122 79.0001 32.4328C79.0001 33.4535 78.1744 34.2885 77.1444 34.2885Z" fill="black"/>
<path d="M88.2787 34.2885C87.2488 34.2885 86.4231 33.4535 86.4231 32.4328C86.4231 31.4122 87.2488 30.5772 88.2787 30.5772C89.3087 30.5772 90.1344 31.4122 90.1344 32.4328C90.1344 33.4535 89.3087 34.2885 88.2787 34.2885Z" fill="black"/>
</svg>
