<svg width="165" height="85" viewBox="0 0 165 85" fill="none" xmlns="http://www.w3.org/2000/svg">
<path fill-rule="evenodd" clip-rule="evenodd" d="M0 20C0 8.9543 8.95431 0 20 0H145C156.046 0 165 8.95431 165 20V65C165 76.0457 156.046 85 145 85H20C8.95431 85 0 76.0457 0 65V20ZM77.473 60C71.5198 59.9657 66.5955 47.8132 66.5955 41.6242C66.5955 31.5145 74.1794 29.3012 77.1023 29.3012C78.4194 29.3012 79.8259 29.8185 81.0665 30.2762C81.934 30.5955 82.8312 30.9251 83.3301 30.9251C83.6245 30.9251 84.3126 30.6527 84.9273 30.4093L84.9541 30.3987C86.2793 29.8712 87.9284 29.2155 89.8487 29.2155H89.8601C91.294 29.2155 95.6416 29.5301 98.2555 33.4555L98.8677 34.3755L97.9866 35.0405C96.7277 35.9903 94.4309 37.723 94.4309 41.1551C94.4309 45.2182 97.0298 46.7819 98.2802 47.5342L98.2818 47.5351L98.2847 47.5369C98.8355 47.8682 99.4044 48.2105 99.4044 48.9576C99.4044 49.4463 95.5043 59.9394 89.8406 59.9394C88.4548 59.9394 87.4751 59.5228 86.6111 59.1555C85.7368 58.7835 84.9826 58.4631 83.7363 58.4631C83.1046 58.4631 82.3058 58.7618 81.4601 59.0788L81.4499 59.0826C80.2967 59.513 78.9919 60 77.5119 60H77.473ZM90.4486 20C90.5961 25.3184 86.7926 29.0081 82.9935 28.7767C82.3675 24.5324 86.7921 20 90.4486 20Z" fill="white"/>
</svg>
