<svg width="136" height="136" viewBox="0 0 136 136" fill="none" xmlns="http://www.w3.org/2000/svg">
<g clip-path="url(#clip0)">
<path d="M110.26 82.3625C109.446 80.6321 108.416 78.4626 108.65 77.5364C109.59 76.0068 110.871 74.7155 112.392 73.7631C115.067 71.6709 117.833 69.5 117.741 66.4C117.649 63.3 114.743 61.2333 111.921 59.2957C110.375 58.4456 109.044 57.2533 108.029 55.81C108.091 54.0412 108.557 52.31 109.393 50.7496C110.677 47.5736 112.005 44.2881 110.379 41.6189C108.754 38.9497 105.257 38.6244 101.865 38.3512C100.069 38.3851 98.2893 38.0039 96.6644 37.2374C95.9585 36.5688 95.6305 34.2061 95.3725 32.3166C94.903 29.0371 94.3849 25.3261 91.5631 23.7991C88.7412 22.272 85.3514 23.8683 82.3605 25.2751C80.6242 26.0903 78.4605 27.1195 77.5323 26.889C76.0075 25.941 74.7162 24.661 73.7552 23.1444C71.6581 20.4424 69.4748 17.6989 66.3866 17.7876C63.2984 17.8764 61.2162 20.7834 59.2491 23.6142C58.3987 25.1595 57.2081 26.4913 55.7672 27.5088C54.0118 27.4401 52.295 26.9741 50.7457 26.1459C47.566 24.8601 44.2765 23.53 41.6113 25.1576C38.946 26.7852 38.6229 30.2787 38.3475 33.6741C38.3827 35.4748 37.9992 37.259 37.2275 38.8863C36.5589 39.5922 34.1941 39.9242 32.3067 40.1782C29.0354 40.6325 25.3224 41.1543 23.7954 43.9762C22.2683 46.798 23.8624 50.1918 25.2753 53.1809C26.0889 54.9114 27.1197 57.0809 26.8854 58.007C25.9456 59.5366 24.6647 60.828 23.1429 61.7804C20.4684 63.8726 17.7019 66.0435 17.794 69.1435C17.8861 72.2435 20.7918 74.3101 23.614 76.2477C25.1601 77.0979 26.4915 78.2902 27.5066 79.7334C27.4448 81.5023 26.9781 83.2335 26.1425 84.7939C24.8588 87.9698 23.5308 91.2554 25.1562 93.9246C26.7816 96.5938 30.2743 96.8722 33.6615 97.1628C35.4668 97.145 37.2525 97.5366 38.8846 98.3086C39.5905 98.9772 39.9185 101.34 40.1765 103.229C40.6345 106.503 41.1526 110.214 43.9744 111.741C46.7963 113.268 50.1861 111.672 53.1771 110.265C54.9133 109.449 57.077 108.42 58.0052 108.651C59.5342 109.594 60.8264 110.875 61.7823 112.395C63.8745 115.07 66.0495 117.829 69.1394 117.746C72.2293 117.663 74.3099 114.75 76.2687 111.935C77.1191 110.389 78.3097 109.057 79.7506 108.04C81.5115 108.104 83.2348 108.569 84.7897 109.398C87.9695 110.683 91.259 112.014 93.9242 110.386C96.5894 108.758 96.8681 105.266 97.1624 101.881C97.1336 100.074 97.526 98.286 98.3082 96.6576C98.9769 95.9517 101.342 95.6198 103.229 95.3658C106.502 94.9077 110.219 94.388 111.744 91.5699C113.269 88.7518 111.673 85.3516 110.26 82.3625Z" fill="#FFC107"/>
<path d="M51.1237 71.1231C50.522 70.7975 50.1086 70.2075 50.0081 69.5307L47.7721 54.4792L42.5992 64.0383C42.0278 65.0942 40.7085 65.487 39.6526 64.9156C38.5968 64.3442 38.204 63.025 38.7754 61.9691L47.052 46.6745C47.6234 45.6186 48.9427 45.2258 49.9986 45.7972C50.6003 46.1228 51.0136 46.7129 51.1141 47.3896L53.3502 62.4411L58.5231 52.882C59.0944 51.8261 60.4137 51.4333 61.4696 52.0047C62.5254 52.5761 62.9182 53.8954 62.3469 54.9512L54.0702 70.2459C53.6245 71.0681 52.7027 71.513 51.7817 71.3506C51.5513 71.3113 51.3292 71.2344 51.1237 71.1231Z" fill="#FAFAFA"/>
<path d="M66.4182 79.3998L58.7708 75.2614C57.7149 74.6901 57.3222 73.3708 57.8935 72.3149L66.1702 57.0203C66.7416 55.9644 68.0609 55.5716 69.1167 56.143L76.7642 60.2814C77.82 60.8528 78.2128 62.1721 77.6414 63.2279C77.0701 64.2838 75.7508 64.6766 74.6949 64.1052L68.9594 61.0014L62.7519 72.4725L68.4874 75.5762C69.5433 76.1476 69.936 77.4669 69.3647 78.5227C68.7933 79.5786 67.4741 79.9712 66.4182 79.3998Z" fill="#FAFAFA"/>
<path d="M70.5567 71.7524L62.9093 67.6141C61.8534 67.0427 61.4606 65.7234 62.032 64.6675C62.6034 63.6116 63.9227 63.2189 64.9786 63.7902L72.626 67.9286C73.6818 68.5 74.0746 69.8193 73.5032 70.8752C72.9319 71.931 71.6126 72.3238 70.5567 71.7524Z" fill="#FAFAFA"/>
<path d="M85.537 89.7455C84.7125 89.3007 84.2657 88.3777 84.4285 87.455L85.6842 80.3387L80.4136 85.2824C79.7229 85.9752 78.6425 86.0927 77.8191 85.5641C76.9873 85.0723 76.58 84.0907 76.8194 83.1545L81.2725 65.7908C81.5717 64.6272 82.7577 63.9267 83.9212 64.2259C85.0848 64.5251 85.7853 65.7111 85.4861 66.8746L82.8858 77.0053L87.47 72.7087C88.4666 71.9524 89.8875 72.1474 90.6437 73.144C90.9756 73.5815 91.1373 74.1246 91.0988 74.6724L90.0093 80.8602L97.0679 73.1421C97.8783 72.2551 99.2541 72.1928 100.141 73.0033C101.028 73.8137 101.09 75.1896 100.28 76.0767L88.1797 89.3021C87.527 90.0146 86.4823 90.2105 85.6158 89.7833L85.537 89.7455Z" fill="#FAFAFA"/>
</g>
<defs>
<clipPath id="clip0">
<rect x="47.593" width="100" height="100" transform="rotate(28.42 47.593 0)" fill="white"/>
</clipPath>
</defs>
</svg>
