<svg width="215" height="493" viewBox="0 0 215 493" fill="none" xmlns="http://www.w3.org/2000/svg">
<path d="M104.639 230.067C103.174 230.067 101.741 230.483 100.522 231.264C99.3034 232.045 98.3535 233.155 97.7926 234.454C97.2317 235.753 97.085 237.182 97.3709 238.561C97.6569 239.939 98.3627 241.206 99.3991 242.2C100.435 243.194 101.756 243.871 103.193 244.145C104.631 244.419 106.121 244.279 107.475 243.741C108.829 243.203 109.987 242.292 110.801 241.123C111.615 239.954 112.05 238.58 112.05 237.174C112.05 235.289 111.269 233.481 109.879 232.148C108.49 230.815 106.605 230.067 104.639 230.067ZM105.636 232.633C105.761 232.636 105.882 232.674 105.985 232.743C106.087 232.812 106.166 232.908 106.212 233.02C106.322 233.27 106.378 233.539 106.378 233.81C106.378 234.081 106.322 234.35 106.212 234.6C106.124 234.874 106.005 235.139 105.858 235.389C105.858 235.389 105.767 235.516 106.064 235.516H107.966C108.046 235.52 108.125 235.541 108.197 235.576C108.269 235.612 108.333 235.661 108.384 235.721C108.435 235.781 108.472 235.851 108.494 235.926C108.516 236 108.521 236.079 108.509 236.155C108.514 236.28 108.477 236.403 108.405 236.506C108.332 236.61 108.228 236.689 108.106 236.732V236.771C108.215 236.822 108.309 236.898 108.379 236.994C108.448 237.089 108.49 237.2 108.501 237.316C108.517 237.447 108.479 237.579 108.394 237.683C108.309 237.786 108.185 237.853 108.048 237.869C108.048 237.869 108.048 237.869 108.048 237.909C108.145 237.96 108.225 238.037 108.278 238.131C108.33 238.225 108.354 238.331 108.345 238.438C108.347 238.544 108.31 238.649 108.241 238.732C108.172 238.816 108.075 238.874 107.966 238.896V238.935C108.035 238.985 108.09 239.051 108.124 239.127C108.159 239.204 108.172 239.287 108.163 239.37C108.165 239.476 108.127 239.58 108.056 239.662C108.01 239.715 107.952 239.757 107.886 239.786C107.821 239.814 107.75 239.829 107.678 239.828H103.561C103.561 239.828 103.346 239.828 103.346 239.551V236.977C103.343 236.342 103.529 235.721 103.882 235.184C104.164 234.783 104.483 234.408 104.837 234.063C104.894 233.999 105.109 233.826 105.109 233.723C105.109 233.62 105.109 233.399 105.109 233.02C105.113 232.96 105.131 232.902 105.161 232.849C105.191 232.796 105.232 232.75 105.282 232.713C105.331 232.677 105.389 232.651 105.45 232.637C105.511 232.623 105.574 232.622 105.636 232.633ZM100.95 236.392H102.597C102.658 236.394 102.715 236.418 102.758 236.459C102.801 236.5 102.826 236.555 102.828 236.613V240.207C102.829 240.236 102.824 240.265 102.813 240.293C102.801 240.32 102.784 240.345 102.763 240.366C102.741 240.386 102.715 240.403 102.687 240.413C102.658 240.424 102.628 240.429 102.597 240.428H100.95C100.889 240.428 100.831 240.405 100.787 240.363C100.744 240.322 100.72 240.265 100.72 240.207V236.629C100.719 236.599 100.724 236.569 100.735 236.541C100.746 236.513 100.762 236.487 100.784 236.465C100.805 236.443 100.831 236.425 100.86 236.413C100.888 236.4 100.919 236.393 100.95 236.392Z" fill="#5E90FF"/>
<path d="M92.5442 226.707C92.4677 226.781 92.3766 226.84 92.2763 226.88C92.1759 226.92 92.0683 226.941 91.9596 226.941C91.8509 226.941 91.7433 226.92 91.6429 226.88C91.5426 226.84 91.4515 226.781 91.375 226.707L90.9221 226.32C87.2579 223.09 85.1582 220.997 85.1582 218.383C85.1582 216.251 86.558 214.6 88.773 214.6C89.3842 214.604 89.9873 214.735 90.5403 214.985C91.0934 215.234 91.5833 215.596 91.9761 216.046C92.3688 215.596 92.8587 215.234 93.4118 214.985C93.9649 214.735 94.5679 214.604 95.1791 214.6C97.3859 214.6 98.7939 216.251 98.7939 218.383C98.7939 220.997 96.6777 223.122 93.03 226.32L92.5442 226.707Z" fill="#E62153"/>
<path d="M125.986 324.414C125.986 324.414 130.927 367.06 141.631 383.644C143.006 388.053 144.106 392.536 144.925 397.07C144.925 397.07 147.395 426.29 150.689 434.977C153.982 443.664 156.453 467.356 156.453 467.356C156.453 467.356 167.98 479.991 172.097 469.725C169.511 456.186 168.681 442.393 169.627 428.659C169.627 428.659 170.451 415.233 166.334 405.757C166.334 405.757 164.687 397.07 166.334 390.752C167.98 384.434 159.746 353.634 159.746 353.634L153.159 322.835L125.986 324.414Z" fill="#F3BBBD"/>
<path d="M177.863 477.622C177.863 477.622 172.923 486.309 144.103 489.468C129.158 491.103 129.051 488.497 132.411 485.606C135.523 482.921 141.633 479.991 141.633 479.991C141.633 479.991 152.337 472.884 153.984 468.145C155.631 463.407 161.395 467.355 161.395 467.355C169.629 479.201 171.276 464.197 172.923 465.776C173.944 466.755 175.607 471.099 176.719 474.242C177.394 476.121 177.863 477.622 177.863 477.622Z" fill="#FF6F61"/>
<path opacity="0.1" d="M177.863 477.623C177.863 477.623 172.923 486.31 144.103 489.469C129.158 491.104 129.051 488.497 132.411 485.607C134.766 487.044 139.509 487.684 149.044 483.941C162.762 478.555 172.7 475.443 176.719 474.243C177.394 476.122 177.863 477.623 177.863 477.623Z" fill="black"/>
<path d="M169.631 428.659C169.631 428.659 170.454 415.233 166.337 405.757C166.337 405.757 164.69 397.07 166.337 390.752C167.984 384.434 159.75 353.634 159.75 353.634L153.162 322.835L147.473 323.166L153.986 353.634C153.986 353.634 162.22 384.434 160.573 390.752C158.926 397.07 160.573 405.757 160.573 405.757C164.69 415.233 163.867 428.659 163.867 428.659C162.921 442.393 163.75 456.186 166.337 469.725C165.897 471.018 165.066 472.156 163.949 472.994C167.02 474.329 170.281 474.258 172.101 469.725C169.514 456.186 168.684 442.393 169.631 428.659Z" fill="#EDA8AB"/>
<path d="M164.275 151.068C158.776 151.062 153.386 152.531 148.712 155.309C142.556 153.957 136.104 154.644 130.408 157.258C124.711 159.873 120.105 164.26 117.34 169.706C110.868 175.234 106.636 184.126 106.636 194.132C106.636 210.93 118.435 224.537 132.985 224.537C143.541 224.537 152.64 217.382 156.864 207.044C160.939 208.057 165.193 208.225 169.342 207.538C173.49 206.85 177.438 205.323 180.924 203.058C184.409 200.794 187.351 197.843 189.555 194.402C191.758 190.961 193.172 187.11 193.703 183.105C194.233 179.099 193.868 175.031 192.632 171.171C191.395 167.312 189.316 163.749 186.531 160.72C183.747 157.691 180.322 155.266 176.485 153.606C172.647 151.946 168.485 151.089 164.275 151.092V151.068Z" fill="#3F3D56"/>
<path d="M188.565 328.363L191.036 334.681C191.036 334.681 193.506 376.536 192.682 380.485C191.859 384.434 195.976 398.649 195.976 398.649C195.976 398.649 204.21 417.603 201.74 442.874L202.563 464.986C202.563 464.986 205.857 473.674 204.21 475.253C202.563 476.832 190.212 473.674 190.212 473.674C190.212 473.674 191.859 457.089 186.095 446.823C180.331 436.556 177.038 410.495 177.038 410.495C177.038 410.495 168.804 394.7 168.804 388.382C168.804 382.065 155.629 330.732 155.629 330.732L188.565 328.363Z" fill="#F3BBBD"/>
<path d="M124.342 327.573C124.342 327.573 125.165 299.143 128.459 290.456C131.752 281.769 132.164 277.899 132.164 277.899C132.164 277.899 182.022 286.539 186.139 283.38C186.139 283.38 186.962 294.436 187.786 295.226C188.609 296.015 191.903 315.759 191.079 325.235C190.256 334.712 191.079 334.712 191.079 334.712C191.079 334.712 157.319 339.451 156.496 334.712C155.673 329.974 153.202 329.974 153.202 329.974C153.202 329.974 122.695 329.153 124.342 327.573Z" fill="#3F3D56"/>
<g opacity="0.1">
<path opacity="0.1" d="M151.51 327.573C151.51 327.573 130.67 327.036 124.396 325.993C124.354 327.02 124.338 327.573 124.338 327.573C122.691 329.152 153.157 329.942 153.157 329.942C153.573 329.984 153.968 330.14 154.294 330.392C153.248 327.588 151.51 327.573 151.51 327.573Z" fill="black"/>
<path opacity="0.1" d="M187.741 295.194C186.918 294.404 186.094 283.348 186.094 283.348C185.671 283.612 185.189 283.777 184.686 283.83C184.991 287.162 185.51 292.295 186.094 292.825C186.918 293.614 190.211 313.358 189.388 322.834C188.565 332.311 189.388 332.311 189.388 332.311C189.388 332.311 162.685 336.062 156.196 333.559C156.295 333.906 156.377 334.27 156.452 334.68C157.275 339.419 191.035 334.68 191.035 334.68C191.035 334.68 190.211 334.68 191.035 325.204C191.858 315.727 188.565 295.983 187.741 295.194Z" fill="black"/>
</g>
<path d="M160.61 200.813C161.318 202.349 162.396 203.703 163.755 204.762C164.635 205.377 165.648 205.792 166.72 205.978C164.867 206.997 162.866 207.763 161.013 208.789C157.983 210.456 155.406 212.738 152.573 214.72C149.741 216.703 146.455 218.306 142.964 218.29C144.192 216.697 144.962 214.823 145.197 212.855C145.433 210.887 145.125 208.894 144.306 207.076C143.713 205.796 142.849 204.557 142.824 203.127C142.824 200.868 144.916 199.178 146.867 197.907C148.454 196.88 150.059 195.885 151.684 194.922C152.969 194.132 154.895 192.553 156.509 192.608C158.313 192.671 158.313 194.037 158.642 195.443C159.066 197.304 159.727 199.107 160.61 200.813Z" fill="#BE6F72"/>
<path d="M160.61 200.813C161.318 202.349 162.396 203.703 163.755 204.762C164.635 205.377 165.648 205.792 166.72 205.978C164.867 206.997 162.866 207.763 161.013 208.789C157.983 210.456 155.406 212.738 152.573 214.72C149.741 216.703 146.455 218.306 142.964 218.29C144.192 216.697 144.962 214.823 145.197 212.855C145.433 210.887 145.125 208.894 144.306 207.076C143.713 205.796 142.849 204.557 142.824 203.127C142.824 200.868 144.916 199.178 146.867 197.907C148.454 196.88 150.059 195.885 151.684 194.922C152.969 194.132 154.895 192.553 156.509 192.608C158.313 192.671 158.313 194.037 158.642 195.443C159.066 197.304 159.727 199.107 160.61 200.813Z" fill="#EDA8AB"/>
<path d="M179.919 247.423C190.378 247.423 198.857 239.291 198.857 229.259C198.857 219.227 190.378 211.095 179.919 211.095C169.46 211.095 160.98 219.227 160.98 229.259C160.98 239.291 169.46 247.423 179.919 247.423Z" fill="#F3BBBD"/>
<path d="M206.68 487.1C206.68 488.679 203.387 492.628 203.387 492.628C193.506 494.207 183.625 490.259 183.625 490.259C181.978 489.469 184.448 484.73 184.448 484.73C184.448 484.73 184.506 484.588 184.621 484.351C185.074 483.317 186.408 480.482 187.742 479.202C189.389 477.623 190.368 471.123 190.368 471.123C195.474 463.044 204.556 474.598 204.556 474.598C204.556 474.598 205.709 480.537 206.318 484.288C206.489 485.219 206.609 486.157 206.68 487.1Z" fill="#FF6F61"/>
<path opacity="0.1" d="M206.68 487.099C206.68 488.679 203.387 492.627 203.387 492.627C193.506 494.207 183.625 490.258 183.625 490.258C181.978 489.468 184.448 484.73 184.448 484.73C184.448 484.73 184.506 484.588 184.621 484.351C188.409 485.93 195.688 488.442 202.563 487.889L206.318 484.288C206.489 485.218 206.609 486.157 206.68 487.099Z" fill="black"/>
<path d="M142.042 209.122C152.274 209.122 160.569 201.166 160.569 191.353C160.569 181.539 152.274 173.584 142.042 173.584C131.81 173.584 123.516 181.539 123.516 191.353C123.516 201.166 131.81 209.122 142.042 209.122Z" fill="#F3BBBD"/>
<path d="M127.091 226.867C123.04 230.586 122.373 236.478 121.945 241.872L121.327 249.721C121.101 251.836 121.043 253.964 121.154 256.087C121.261 257.413 121.5 258.724 121.632 260.035C121.788 261.615 121.797 263.194 121.805 264.774L121.879 276.391C121.879 278.76 121.945 281.303 123.213 283.364C124.481 285.425 127.404 286.752 129.545 285.528C130.945 284.738 131.595 283.159 132.155 281.682C133.967 276.896 135.795 272.039 136.272 266.969C136.445 265.224 136.462 263.471 136.626 261.725C136.791 259.98 137.104 258.156 137.384 256.379C138.553 248.979 139.08 241.508 139.599 234.053C139.755 231.842 141.83 223.147 138.817 222.207C137.343 221.733 134.296 223.186 132.904 223.676C130.76 224.349 128.782 225.434 127.091 226.867Z" fill="#F3BBBD"/>
<path d="M165.512 202.795C165.512 202.795 151.514 213.062 143.28 215.431C143.28 215.431 138.397 220.777 137.516 222.057C136.635 223.336 135.046 237.543 133.399 240.702C131.752 243.861 127.635 250.969 133.399 258.076C133.399 258.076 135.046 265.184 134.222 267.553C133.399 269.922 130.41 278.609 133.144 279.012C135.877 279.415 144.103 284.927 151.514 283.348C158.925 281.768 186.509 289.271 186.509 289.271C186.509 289.271 191.038 248.6 194.332 241.492L186.921 239.123C186.921 239.123 166.336 227.277 178.687 209.113C178.687 209.113 167.159 206.744 165.512 202.795Z" fill="#FF6F61"/>
<path d="M110.451 158.305L119.726 250.564H127.525L208.044 168.262L110.451 158.305Z" fill="url(#paint0_linear)"/>
<path d="M114.4 250.361L131.403 261.907C131.621 262.059 131.884 262.14 132.153 262.14C132.422 262.14 132.684 262.059 132.902 261.907L137.497 258.598C137.649 258.491 137.775 258.352 137.864 258.192C137.953 258.032 138.004 257.855 138.012 257.673C138.02 257.492 137.985 257.311 137.91 257.145C137.835 256.978 137.722 256.83 137.579 256.711L124.495 245.52C124.323 245.376 124.114 245.278 123.89 245.237C123.666 245.195 123.434 245.211 123.219 245.283L114.705 248.205C114.486 248.283 114.293 248.416 114.148 248.59C114.002 248.765 113.908 248.974 113.877 249.196C113.846 249.417 113.878 249.643 113.97 249.848C114.062 250.053 114.211 250.231 114.4 250.361Z" fill="#3F3D56"/>
<path d="M120.114 285.173C118.714 281.224 118.516 277.007 118.335 272.845L118.088 267.317C117.989 265.153 117.907 262.91 118.697 260.88C119.834 257.974 122.674 255.897 125.754 254.949C128.885 254.117 132.157 253.891 135.38 254.286C135.811 254.281 136.235 254.396 136.598 254.618C136.927 254.912 137.162 255.29 137.274 255.708C137.974 257.587 138.657 259.751 137.661 261.512C137.172 262.275 136.51 262.922 135.726 263.408C133.445 264.987 130.785 266.029 128.62 267.735C128.19 267.969 127.863 268.345 127.701 268.792C127.539 269.24 127.552 269.729 127.739 270.168C128.01 271.275 128.379 272.358 128.842 273.406C129.03 273.93 129.353 274.4 129.781 274.772C130.184 275.08 130.711 275.214 131.114 275.514C132.02 276.209 133.889 277.141 133.807 278.247C133.494 282.337 130.974 286.76 129.978 290.74C128.043 298.495 121.324 288.561 120.114 285.173Z" fill="#F3BBBD"/>
<g opacity="0.1">
<path opacity="0.1" d="M146.573 283.348C146.423 283.38 146.272 283.403 146.12 283.419C147.906 283.728 149.737 283.703 151.513 283.348L152.024 283.269C150.212 283.055 148.378 283.082 146.573 283.348Z" fill="black"/>
<path opacity="0.1" d="M189.801 240.308C186.853 246.681 182.498 281.177 181.707 288.032C184.622 288.758 186.508 289.272 186.508 289.272C186.508 289.272 191.036 248.6 194.33 241.493L189.801 240.308Z" fill="black"/>
</g>
<path d="M180.561 229.812C180.619 231.431 182.002 232.671 183.27 233.761C185.017 235.166 186.619 236.729 188.054 238.428C190.128 241.216 191.736 244.296 192.822 247.558C194.394 251.651 195.719 255.828 196.791 260.067C186.202 264.726 174.394 264.505 163.195 267.585C158.369 268.783 153.984 271.244 150.531 274.693C147.238 278.223 145.245 283.072 145.904 287.787C145.923 288.064 146.007 288.334 146.151 288.576C146.337 288.77 146.566 288.921 146.821 289.018C147.076 289.115 147.351 289.156 147.625 289.137C150.41 289.14 153.117 288.251 155.315 286.61C157.49 284.989 159.462 283.135 161.195 281.082C162.283 279.739 163.74 278.714 165.402 278.12C171.471 276.343 177.935 276.454 184.283 276.343C193.678 276.17 203.055 275.458 212.361 274.211C213.121 274.202 213.85 273.92 214.403 273.421C214.721 272.951 214.887 272.402 214.881 271.842C215.803 259.996 211.217 248.403 206.466 237.41C204.561 233.008 202.62 228.622 200.644 224.253C198.759 220.091 196.774 215.85 193.522 212.557C192.332 211.286 190.879 210.267 189.256 209.564C187.508 208.967 185.676 208.623 183.822 208.545C180.766 208.162 177.676 208.107 174.608 208.379C174.27 209.958 173.669 211.364 173.727 212.952C173.9 218.377 176.37 223.455 178.799 228.359C179.186 229.07 180.075 229.094 180.561 229.812Z" fill="#F3BBBD"/>
<path opacity="0.1" d="M147.032 239.992C145.607 242.319 144.877 244.978 144.924 247.676C144.932 248.749 145.11 249.814 145.451 250.835C146.472 253.694 149.165 255.794 152.137 256.797" stroke="black" stroke-miterlimit="10"/>
<path d="M157.688 173.971C156.653 173.975 155.625 174.132 154.641 174.437C151.899 170.488 145.452 167.653 137.926 167.653C127.921 167.653 119.811 172.605 119.811 178.709C119.811 184.814 127.921 189.765 137.926 189.765C141.673 189.805 145.384 189.053 148.795 187.562C149.561 189.088 150.741 190.389 152.209 191.329C153.678 192.27 155.383 192.815 157.146 192.91C158.909 193.004 160.667 192.643 162.235 191.865C163.804 191.087 165.126 189.92 166.065 188.485C167.004 187.05 167.525 185.4 167.573 183.707C167.621 182.014 167.196 180.34 166.34 178.858C165.485 177.376 164.231 176.141 162.709 175.281C161.188 174.422 159.454 173.969 157.688 173.971Z" fill="#3F3D56"/>
<path opacity="0.1" d="M158.511 190.555C156.653 190.554 154.833 190.05 153.26 189.101C151.687 188.153 150.425 186.798 149.618 185.193C146.208 186.684 142.497 187.436 138.749 187.396C128.745 187.396 120.634 182.452 120.634 176.34C120.635 175.975 120.665 175.611 120.725 175.25C120.131 176.315 119.817 177.502 119.811 178.709C119.811 184.822 127.921 189.765 137.926 189.765C141.673 189.805 145.384 189.053 148.795 187.562C149.702 189.353 151.175 190.824 153.004 191.766C154.833 192.709 156.924 193.075 158.982 192.813C161.04 192.55 162.96 191.673 164.469 190.305C165.977 188.938 166.999 187.149 167.387 185.193C166.582 186.796 165.322 188.149 163.752 189.097C162.183 190.045 160.366 190.551 158.511 190.555Z" fill="black"/>
<path opacity="0.1" d="M117.34 174.444C120.111 168.995 124.725 164.607 130.43 161.997C136.135 159.387 142.594 158.708 148.753 160.071C153.065 157.521 157.987 156.073 163.048 155.865C168.109 155.658 173.141 156.698 177.664 158.887C182.187 161.075 186.05 164.339 188.883 168.366C191.717 172.393 193.428 177.05 193.852 181.891C193.917 181.102 193.959 180.312 193.959 179.522C193.957 174.462 192.548 169.494 189.876 165.131C187.204 160.768 183.366 157.168 178.758 154.702C174.151 152.237 168.941 150.995 163.666 151.106C158.392 151.217 153.244 152.676 148.753 155.333C142.594 153.969 136.135 154.648 130.43 157.258C124.725 159.869 120.111 164.257 117.34 169.706C110.868 175.234 106.636 184.126 106.636 194.132C106.636 194.922 106.636 195.712 106.726 196.501C107.327 187.451 111.346 179.522 117.34 174.444Z" fill="black"/>
<path d="M79.071 148.754C76.4405 148.752 73.8687 149.499 71.6807 150.899C69.4928 152.3 67.787 154.291 66.7793 156.622C65.7715 158.952 65.507 161.517 66.0192 163.991C66.5313 166.466 67.7972 168.739 69.6567 170.524C71.5161 172.308 73.8856 173.524 76.4654 174.016C79.0452 174.509 81.7194 174.257 84.1498 173.292C86.5802 172.327 88.6576 170.692 90.1192 168.595C91.5807 166.497 92.3609 164.031 92.3609 161.508C92.362 159.833 92.019 158.175 91.3516 156.628C90.6842 155.08 89.7055 153.674 88.4713 152.49C87.2371 151.305 85.7717 150.366 84.1587 149.725C82.5458 149.084 80.817 148.754 79.071 148.754ZM80.8496 153.342C81.0738 153.35 81.2907 153.421 81.4736 153.546C81.6564 153.671 81.7972 153.844 81.8788 154.045C82.2786 154.937 82.2934 155.945 81.92 156.848C81.7572 157.336 81.5448 157.807 81.286 158.254C81.286 158.254 81.1213 158.491 81.6565 158.483H85.0572C85.2023 158.494 85.3437 158.533 85.4725 158.598C85.6012 158.663 85.7147 158.752 85.8058 158.861C85.8969 158.97 85.9637 159.096 86.0021 159.23C86.0404 159.365 86.0496 159.506 86.0288 159.644C86.0361 159.865 85.9708 160.082 85.8422 160.264C85.7136 160.447 85.5283 160.587 85.3125 160.663C85.3072 160.667 85.303 160.673 85.3001 160.679C85.2972 160.685 85.2957 160.692 85.2957 160.698C85.2957 160.705 85.2972 160.712 85.3001 160.718C85.303 160.724 85.3072 160.729 85.3125 160.734C85.5087 160.825 85.6771 160.962 85.8012 161.134C85.9253 161.306 86.0009 161.505 86.0206 161.713C86.0343 161.83 86.0239 161.948 85.9899 162.061C85.956 162.174 85.8991 162.279 85.8226 162.371C85.7461 162.462 85.6515 162.539 85.5442 162.595C85.4368 162.652 85.3189 162.688 85.1972 162.7C85.1834 162.704 85.1715 162.713 85.1638 162.724C85.1562 162.736 85.1534 162.75 85.156 162.764C85.3302 162.853 85.4741 162.988 85.5704 163.153C85.6668 163.318 85.7116 163.506 85.6995 163.695C85.6979 163.887 85.6299 164.072 85.5061 164.222C85.3823 164.373 85.2099 164.479 85.0161 164.525C85.0016 164.53 84.9895 164.54 84.982 164.553C84.9744 164.566 84.9719 164.581 84.9749 164.596C85.1071 164.68 85.2109 164.8 85.2737 164.94C85.3366 165.08 85.3557 165.235 85.3289 165.385C85.3291 165.493 85.3063 165.6 85.2619 165.699C85.2175 165.798 85.1524 165.887 85.0706 165.961C84.9888 166.035 84.8921 166.092 84.7864 166.129C84.6808 166.166 84.5683 166.182 84.4561 166.175H77.1607C77.1607 166.175 76.7654 166.175 76.7654 165.662V161.066C76.7683 159.933 77.0989 158.823 77.7206 157.859C78.2394 157.151 78.8119 156.481 79.4333 155.853C79.5404 155.751 79.9273 155.427 79.9273 155.253C79.9273 155.079 79.9273 154.669 79.9273 153.997C79.9619 153.795 80.0775 153.613 80.2497 153.49C80.422 153.368 80.6371 153.315 80.8496 153.342ZM72.4755 160.071H75.4068C75.5182 160.071 75.625 160.113 75.7038 160.188C75.7825 160.264 75.8268 160.366 75.8268 160.473V166.894C75.8268 167.001 75.7825 167.103 75.7038 167.179C75.625 167.254 75.5182 167.297 75.4068 167.297H72.4837C72.4289 167.297 72.3747 167.286 72.3242 167.266C72.2737 167.245 72.228 167.216 72.1896 167.178C72.1513 167.141 72.1211 167.096 72.1009 167.047C72.0807 166.999 72.0709 166.946 72.072 166.894V160.465C72.072 160.362 72.1142 160.263 72.1897 160.189C72.2651 160.115 72.3677 160.073 72.4755 160.071Z" fill="white"/>
<path d="M80.8496 153.342C81.0738 153.35 81.2907 153.421 81.4736 153.546C81.6564 153.671 81.7972 153.844 81.8788 154.045C82.2786 154.937 82.2934 155.945 81.92 156.848C81.7572 157.336 81.5448 157.807 81.286 158.254C81.286 158.254 81.1213 158.491 81.6565 158.483H85.0572C85.2023 158.494 85.3437 158.533 85.4725 158.598C85.6012 158.663 85.7147 158.752 85.8058 158.861C85.8969 158.97 85.9637 159.096 86.0021 159.23C86.0404 159.365 86.0496 159.506 86.0288 159.644C86.0361 159.865 85.9708 160.082 85.8422 160.264C85.7136 160.447 85.5283 160.587 85.3125 160.663C85.3072 160.667 85.303 160.673 85.3001 160.679C85.2972 160.685 85.2957 160.692 85.2957 160.698C85.2957 160.705 85.2972 160.712 85.3001 160.718C85.303 160.724 85.3072 160.729 85.3125 160.734C85.5087 160.825 85.6771 160.962 85.8012 161.134C85.9253 161.306 86.0009 161.505 86.0206 161.713C86.0343 161.83 86.0239 161.948 85.9899 162.061C85.956 162.174 85.8991 162.279 85.8226 162.371C85.7461 162.462 85.6515 162.539 85.5442 162.595C85.4368 162.652 85.3189 162.688 85.1972 162.7C85.1834 162.704 85.1715 162.713 85.1638 162.724C85.1562 162.736 85.1534 162.75 85.156 162.764C85.3302 162.853 85.4741 162.988 85.5704 163.153C85.6668 163.318 85.7116 163.506 85.6995 163.695C85.6979 163.887 85.6299 164.072 85.5061 164.222C85.3823 164.373 85.2099 164.479 85.0161 164.525C85.0016 164.53 84.9895 164.54 84.982 164.553C84.9744 164.566 84.9719 164.581 84.9749 164.596C85.1071 164.68 85.2109 164.8 85.2737 164.94C85.3366 165.08 85.3557 165.235 85.3289 165.385C85.3291 165.493 85.3063 165.6 85.2619 165.699C85.2175 165.798 85.1524 165.887 85.0706 165.961C84.9888 166.035 84.8921 166.092 84.7864 166.129C84.6808 166.166 84.5683 166.182 84.4561 166.175H77.1607C77.1607 166.175 76.7654 166.175 76.7654 165.662V161.066C76.7683 159.933 77.0989 158.823 77.7206 157.859C78.2394 157.151 78.8119 156.481 79.4333 155.853C79.5404 155.751 79.9273 155.427 79.9273 155.253V153.997C79.9619 153.795 80.0775 153.613 80.2497 153.49C80.422 153.368 80.6371 153.315 80.8496 153.342Z" fill="white"/>
<path d="M72.4755 160.071H75.4068C75.5182 160.071 75.625 160.113 75.7038 160.188C75.7825 160.264 75.8268 160.366 75.8268 160.473V166.894C75.8268 167.001 75.7825 167.103 75.7038 167.179C75.625 167.254 75.5182 167.297 75.4068 167.297H72.4837C72.4289 167.297 72.3747 167.286 72.3242 167.266C72.2737 167.245 72.228 167.216 72.1896 167.178C72.1513 167.141 72.1211 167.096 72.1009 167.047C72.0807 166.999 72.0709 166.946 72.072 166.894V160.465C72.072 160.362 72.1142 160.263 72.1897 160.189C72.2651 160.115 72.3677 160.073 72.4755 160.071Z" fill="white"/>
<path d="M79.071 148.754C76.4405 148.752 73.8687 149.499 71.6807 150.899C69.4928 152.3 67.787 154.291 66.7793 156.622C65.7715 158.952 65.507 161.517 66.0192 163.991C66.5313 166.466 67.7972 168.739 69.6567 170.524C71.5161 172.308 73.8856 173.524 76.4654 174.016C79.0452 174.509 81.7194 174.257 84.1498 173.292C86.5802 172.327 88.6576 170.692 90.1192 168.595C91.5807 166.497 92.3609 164.031 92.3609 161.508C92.362 159.833 92.019 158.175 91.3516 156.628C90.6842 155.08 89.7055 153.674 88.4713 152.49C87.2371 151.305 85.7717 150.366 84.1587 149.725C82.5458 149.084 80.817 148.754 79.071 148.754ZM80.8496 153.342C81.0738 153.35 81.2907 153.421 81.4736 153.546C81.6564 153.671 81.7972 153.844 81.8788 154.045C82.2786 154.937 82.2934 155.945 81.92 156.848C81.7572 157.336 81.5448 157.807 81.286 158.254C81.286 158.254 81.1213 158.491 81.6565 158.483H85.0572C85.2023 158.494 85.3437 158.533 85.4725 158.598C85.6012 158.663 85.7147 158.752 85.8058 158.861C85.8969 158.97 85.9637 159.096 86.0021 159.23C86.0404 159.365 86.0496 159.506 86.0288 159.644C86.0361 159.865 85.9708 160.082 85.8422 160.264C85.7136 160.447 85.5283 160.587 85.3125 160.663C85.3072 160.667 85.303 160.673 85.3001 160.679C85.2972 160.685 85.2957 160.692 85.2957 160.698C85.2957 160.705 85.2972 160.712 85.3001 160.718C85.303 160.724 85.3072 160.729 85.3125 160.734C85.5087 160.825 85.6771 160.962 85.8012 161.134C85.9253 161.306 86.0009 161.505 86.0206 161.713C86.0343 161.83 86.0239 161.948 85.9899 162.061C85.956 162.174 85.8991 162.279 85.8226 162.371C85.7461 162.462 85.6515 162.539 85.5442 162.595C85.4368 162.652 85.3189 162.688 85.1972 162.7C85.1834 162.704 85.1715 162.713 85.1638 162.724C85.1562 162.736 85.1534 162.75 85.156 162.764C85.3302 162.853 85.4741 162.988 85.5704 163.153C85.6668 163.318 85.7116 163.506 85.6995 163.695C85.6979 163.887 85.6299 164.072 85.5061 164.222C85.3823 164.373 85.2099 164.479 85.0161 164.525C85.0016 164.53 84.9895 164.54 84.982 164.553C84.9744 164.566 84.9719 164.581 84.9749 164.596C85.1071 164.68 85.2109 164.8 85.2737 164.94C85.3366 165.08 85.3557 165.235 85.3289 165.385C85.3291 165.493 85.3063 165.6 85.2619 165.699C85.2175 165.798 85.1524 165.887 85.0706 165.961C84.9888 166.035 84.8921 166.092 84.7864 166.129C84.6808 166.166 84.5683 166.182 84.4561 166.175H77.1607C77.1607 166.175 76.7654 166.175 76.7654 165.662V161.066C76.7683 159.933 77.0989 158.823 77.7206 157.859C78.2394 157.151 78.8119 156.481 79.4333 155.853C79.5404 155.751 79.9273 155.427 79.9273 155.253C79.9273 155.079 79.9273 154.669 79.9273 153.997C79.9619 153.795 80.0775 153.613 80.2497 153.49C80.422 153.368 80.6371 153.315 80.8496 153.342ZM72.4755 160.071H75.4068C75.5182 160.071 75.625 160.113 75.7038 160.188C75.7825 160.264 75.8268 160.366 75.8268 160.473V166.894C75.8268 167.001 75.7825 167.103 75.7038 167.179C75.625 167.254 75.5182 167.297 75.4068 167.297H72.4837C72.4289 167.297 72.3747 167.286 72.3242 167.266C72.2737 167.245 72.228 167.216 72.1896 167.178C72.1513 167.141 72.1211 167.096 72.1009 167.047C72.0807 166.999 72.0709 166.946 72.072 166.894V160.465C72.072 160.362 72.1142 160.263 72.1897 160.189C72.2651 160.115 72.3677 160.073 72.4755 160.071Z" fill="#5E90FF"/>
<path d="M57.8306 146.448C57.5434 146.695 57.171 146.832 56.7849 146.832C56.3988 146.832 56.0263 146.695 55.7391 146.448L54.9157 145.753C48.3284 139.98 44.5654 136.228 44.5654 131.537C44.5654 127.723 47.0768 124.777 51.0292 124.777C52.1276 124.777 53.2128 125.007 54.2085 125.452C55.2043 125.897 56.0864 126.545 56.7931 127.352C57.5005 126.546 58.3828 125.898 59.3784 125.454C60.3739 125.009 61.4587 124.778 62.557 124.777C66.5093 124.777 69.0208 127.723 69.0208 131.537C69.0208 136.205 65.2331 139.956 58.6705 145.753L57.8306 146.448Z" fill="#E62153"/>
<path d="M107.977 103.876C102.855 103.561 91.4455 103.562 86.3302 103.876C80.7913 104.218 80.1389 107.24 80.0977 115.193C80.1389 123.132 80.7856 126.166 86.3302 126.509C91.447 126.824 102.855 126.825 107.977 126.509C113.516 126.168 114.168 123.146 114.21 115.193C114.168 107.254 113.522 104.219 107.977 103.876ZM92.8896 120.327V110.058L104.26 115.184L92.8896 120.327Z" fill="white"/>
<path d="M92.8896 120.327V110.058L104.26 115.184L92.8896 120.327Z" fill="white"/>
<path d="M107.855 103.691C102.732 103.376 91.3235 103.377 86.2081 103.691C80.6692 104.033 80.0168 107.054 79.9756 115.008C80.0168 122.947 80.6635 125.981 86.2081 126.324C91.3249 126.639 102.732 126.64 107.855 126.324C113.394 125.983 114.046 122.961 114.087 115.008C114.046 107.069 113.4 104.034 107.855 103.691ZM92.7675 120.142V109.873L104.138 114.999L92.7675 120.142Z" fill="#FF0000"/>
<path d="M124.602 3.52538C123.536 3.98976 122.39 4.30251 121.187 4.44348C122.415 3.72203 123.358 2.57885 123.802 1.21651C122.653 1.88465 121.38 2.37036 120.025 2.63216C118.942 1.49846 117.395 0.790039 115.685 0.790039C111.846 0.790039 109.025 4.30369 109.892 7.95122C104.951 7.70836 100.57 5.38646 97.6362 1.8574C96.0783 4.47902 96.8283 7.90857 99.4755 9.64526C98.5021 9.61446 97.5843 9.35265 96.7836 8.91552C96.7184 11.6177 98.6929 14.1457 101.553 14.7084C100.716 14.9311 99.7991 14.9833 98.8668 14.8079C99.6228 17.1251 101.818 18.8109 104.422 18.8582C101.922 20.7809 98.7726 21.6398 95.6182 21.2749C98.2497 22.9299 101.376 23.8953 104.734 23.8953C115.774 23.8953 122.012 14.7487 121.635 6.54504C122.797 5.72171 123.805 4.69463 124.602 3.52538Z" fill="#1DA1F2"/>
<path d="M33.7129 46.7974C34.3783 46.7974 35.122 46.7974 35.9396 46.7974V29.7683C34.7045 30.9911 34.0478 32.4661 33.7129 33.57V46.7974Z" fill="#FF8A00"/>
<path d="M45.9611 28.6305C45.2088 28.2451 44.0084 27.7598 42.6211 27.6123V46.7921C43.7083 46.7921 44.826 46.7921 45.9611 46.7921V28.6305Z" fill="#FF8A00"/>
<path d="M38.165 46.798C39.2132 46.798 40.3352 46.798 41.5051 46.798V27.5754C40.2004 27.6135 39.087 27.8562 38.165 28.2558V46.798Z" fill="#FF8A00"/>
<path d="M27.0324 35.7534C25.719 36.843 24.8057 38.6178 24.8057 40.6733C24.8057 42.605 25.6929 44.3132 27.0324 45.4313V35.7534Z" fill="#FF8A00"/>
<path d="M68.2215 33.3936C66.6124 33.3936 65.6774 34.0264 65.6774 34.0264C65.6774 34.0264 64.7423 23.6919 55.3571 23.6919C49.8948 23.6919 47.7507 26.9845 47.0723 28.4357V46.7923C56.8967 46.7923 67.4431 46.7923 67.4431 46.7923C67.4431 46.7923 73.9753 46.6781 73.9753 40.15C73.9753 35.1255 69.8263 33.3936 68.2215 33.3936Z" fill="#FF8A00"/>
<path d="M31.4884 34.7169C31.0492 34.655 30.549 34.6074 29.9967 34.6074C29.7488 34.6074 29.5053 34.655 29.2617 34.6978V46.593C29.7314 46.7214 30.2185 46.7976 30.723 46.7976C30.8882 46.7976 31.1579 46.7976 31.4884 46.7976V34.7169Z" fill="#FF8A00"/>
<path fill-rule="evenodd" clip-rule="evenodd" d="M56.9673 65.5476L55.2734 69.5131V85.7214H61.2956V88.6529H64.6834L67.8831 85.7214H72.7767L79.3641 79.6861V65.5476H56.9673ZM77.1049 78.6522L73.3409 82.1006H67.3188L64.1191 85.0321V82.1006H59.0374V67.6165H77.1049V78.6522ZM73.3409 71.5829V77.6115H71.0828V71.5829H73.3409ZM67.3188 71.5829V77.6115H65.0606V71.5829H67.3188Z" fill="white"/>
<path fill-rule="evenodd" clip-rule="evenodd" d="M77.1049 78.6522L73.3409 82.1006H67.3188L64.1191 85.0321V82.1006H59.0374V67.6165H77.1049V78.6522ZM73.3409 77.6115V71.5829H71.0828V77.6115H73.3409ZM67.3188 77.6115V71.5829H65.0606V77.6115H67.3188Z" fill="white"/>
<path fill-rule="evenodd" clip-rule="evenodd" d="M56.9673 65.5476L55.2734 69.5131V85.7214H61.2956V88.6529H64.6834L67.8831 85.7214H72.7767L79.3641 79.6861V65.5476H56.9673V65.5476ZM77.1049 78.6522L73.3409 82.1006H67.3188L64.1191 85.0321V82.1006H59.0374V67.6165H77.1049V78.6522ZM73.3409 71.5829V77.6115H71.0828V71.5829H73.3409ZM67.3188 71.5829V77.6115H65.0606V71.5829H67.3188Z" fill="#6441A4"/>
<path d="M77.2006 187.669C80.4167 187.669 80.7982 187.681 82.0689 187.737C85.3332 187.879 86.858 189.365 87.0065 192.472C87.0648 193.69 87.0758 194.056 87.0758 197.14C87.0758 200.226 87.0638 200.591 87.0065 201.809C86.857 204.913 85.3362 206.402 82.0689 206.544C80.7982 206.6 80.4187 206.612 77.2006 206.612C73.9845 206.612 73.6031 206.6 72.3333 206.544C69.061 206.401 67.5443 204.909 67.3957 201.808C67.3375 200.59 67.3254 200.225 67.3254 197.139C67.3254 194.055 67.3385 193.69 67.3957 192.471C67.5453 189.365 69.066 187.878 72.3333 187.736C73.6041 187.681 73.9845 187.669 77.2006 187.669ZM77.2006 185.587C73.9293 185.587 73.5198 185.6 72.2349 185.656C67.8605 185.849 65.4293 188.177 65.2285 192.376C65.1693 193.609 65.1553 194.002 65.1553 197.139C65.1553 200.277 65.1693 200.671 65.2275 201.903C65.4283 206.099 67.8554 208.43 72.2339 208.623C73.5198 208.679 73.9293 208.692 77.2006 208.692C80.4719 208.692 80.8825 208.679 82.1673 208.623C86.5378 208.43 88.9749 206.102 89.1727 201.903C89.2319 200.671 89.246 200.277 89.246 197.139C89.246 194.002 89.2319 193.609 89.1737 192.377C88.977 188.185 86.5468 185.85 82.1683 185.657C80.8825 185.6 80.4719 185.587 77.2006 185.587ZM77.2006 191.207C73.7848 191.207 71.0153 193.863 71.0153 197.139C71.0153 200.416 73.7848 203.073 77.2006 203.073C80.6165 203.073 83.3859 200.417 83.3859 197.139C83.3859 193.863 80.6165 191.207 77.2006 191.207ZM77.2006 200.99C74.9833 200.99 73.1855 199.267 73.1855 197.139C73.1855 195.013 74.9833 193.289 77.2006 193.289C79.418 193.289 81.2157 195.013 81.2157 197.139C81.2157 199.267 79.418 200.99 77.2006 200.99ZM83.6308 189.587C82.8318 189.587 82.1844 190.208 82.1844 190.973C82.1844 191.739 82.8318 192.36 83.6308 192.36C84.4288 192.36 85.0753 191.739 85.0753 190.973C85.0753 190.208 84.4288 189.587 83.6308 189.587Z" fill="white"/>
<path fill-rule="evenodd" clip-rule="evenodd" d="M77.2006 187.669C80.4167 187.669 80.7982 187.681 82.0689 187.737C85.3332 187.879 86.858 189.365 87.0065 192.472C87.0648 193.69 87.0758 194.056 87.0758 197.14C87.0758 200.226 87.0638 200.591 87.0065 201.809C86.857 204.913 85.3362 206.402 82.0689 206.544C80.7982 206.6 80.4187 206.612 77.2006 206.612C73.9845 206.612 73.6031 206.6 72.3333 206.544C69.061 206.401 67.5443 204.909 67.3957 201.808C67.3375 200.59 67.3254 200.225 67.3254 197.139C67.3254 194.055 67.3385 193.69 67.3957 192.471C67.5453 189.365 69.066 187.878 72.3333 187.736C73.6041 187.681 73.9845 187.669 77.2006 187.669ZM71.0153 197.139C71.0153 193.863 73.7848 191.207 77.2006 191.207C80.6165 191.207 83.3859 193.863 83.3859 197.139C83.3859 200.417 80.6165 203.073 77.2006 203.073C73.7848 203.073 71.0153 200.416 71.0153 197.139ZM82.1844 190.973C82.1844 190.208 82.8318 189.587 83.6308 189.587C84.4288 189.587 85.0753 190.208 85.0753 190.973C85.0753 191.739 84.4288 192.36 83.6308 192.36C82.8318 192.36 82.1844 191.739 82.1844 190.973Z" fill="white"/>
<path d="M77.2006 200.99C74.9833 200.99 73.1855 199.267 73.1855 197.139C73.1855 195.013 74.9833 193.289 77.2006 193.289C79.418 193.289 81.2157 195.013 81.2157 197.139C81.2157 199.267 79.418 200.99 77.2006 200.99Z" fill="white"/>
<path d="M77.2006 187.669C80.4167 187.669 80.7982 187.681 82.0689 187.737C85.3332 187.879 86.858 189.365 87.0065 192.472C87.0648 193.69 87.0758 194.056 87.0758 197.14C87.0758 200.226 87.0638 200.591 87.0065 201.809C86.857 204.913 85.3362 206.402 82.0689 206.544C80.7982 206.6 80.4187 206.612 77.2006 206.612C73.9845 206.612 73.6031 206.6 72.3333 206.544C69.061 206.401 67.5443 204.909 67.3957 201.808C67.3375 200.59 67.3254 200.225 67.3254 197.139C67.3254 194.055 67.3385 193.69 67.3957 192.471C67.5453 189.365 69.066 187.878 72.3333 187.736C73.6041 187.681 73.9845 187.669 77.2006 187.669ZM77.2006 185.587C73.9293 185.587 73.5198 185.6 72.2349 185.656C67.8605 185.849 65.4293 188.177 65.2285 192.376C65.1693 193.609 65.1553 194.002 65.1553 197.139C65.1553 200.277 65.1693 200.671 65.2275 201.903C65.4283 206.099 67.8554 208.43 72.2339 208.623C73.5198 208.679 73.9293 208.692 77.2006 208.692C80.4719 208.692 80.8825 208.679 82.1673 208.623C86.5378 208.43 88.9749 206.102 89.1727 201.903C89.2319 200.671 89.246 200.277 89.246 197.139C89.246 194.002 89.2319 193.609 89.1737 192.377C88.977 188.185 86.5468 185.85 82.1683 185.657C80.8825 185.6 80.4719 185.587 77.2006 185.587V185.587ZM77.2006 191.207C73.7848 191.207 71.0153 193.863 71.0153 197.139C71.0153 200.416 73.7848 203.073 77.2006 203.073C80.6165 203.073 83.3859 200.417 83.3859 197.139C83.3859 193.863 80.6165 191.207 77.2006 191.207ZM77.2006 200.99C74.9833 200.99 73.1855 199.267 73.1855 197.139C73.1855 195.013 74.9833 193.289 77.2006 193.289C79.418 193.289 81.2157 195.013 81.2157 197.139C81.2157 199.267 79.418 200.99 77.2006 200.99ZM83.6308 189.587C82.8318 189.587 82.1844 190.208 82.1844 190.973C82.1844 191.739 82.8318 192.36 83.6308 192.36C84.4288 192.36 85.0753 191.739 85.0753 190.973C85.0753 190.208 84.4288 189.587 83.6308 189.587Z" fill="url(#paint1_linear)"/>
<path d="M160.65 0H162.334C173.237 0 182.077 8.83938 182.077 19.7433C182.077 30.6472 173.237 39.4866 162.334 39.4866H160.65C149.746 39.4866 140.906 30.6472 140.906 19.7433C140.906 8.83938 149.746 0 160.65 0Z" fill="#FFFC01"/>
<path d="M161.623 30.5815C161.562 30.5815 161.502 30.5798 161.442 30.5769C161.404 30.5802 161.364 30.5815 161.324 30.5815C159.924 30.5815 159.026 29.9724 158.156 29.3828C157.556 28.9762 156.99 28.5921 156.323 28.4857C155.997 28.4339 155.673 28.408 155.36 28.408C154.796 28.408 154.351 28.4915 154.026 28.5522C153.828 28.5896 153.658 28.6213 153.528 28.6213C153.393 28.6213 153.247 28.5933 153.183 28.3845C153.128 28.2035 153.088 28.0288 153.049 27.8589C152.95 27.4232 152.879 27.155 152.689 27.127C150.468 26.7981 149.832 26.349 149.691 26.0309C149.671 25.9856 149.659 25.9397 149.657 25.8948C149.649 25.7722 149.739 25.6642 149.866 25.6447C153.28 25.1056 154.81 21.7589 154.874 21.6168C154.876 21.6132 154.878 21.6091 154.88 21.6054C155.089 21.1992 155.129 20.8466 155.002 20.5574C154.768 20.0283 154.003 19.7956 153.497 19.6417C153.374 19.6039 153.256 19.5685 153.164 19.5332C152.154 19.1505 152.071 18.7581 152.11 18.5578C152.178 18.2165 152.653 17.9788 153.038 17.9788C153.143 17.9788 153.236 17.9969 153.314 18.032C153.768 18.2358 154.177 18.3391 154.53 18.3391C155.018 18.3391 155.231 18.1427 155.257 18.1166C155.244 17.8951 155.229 17.6637 155.213 17.4246C155.112 15.877 154.986 13.9532 155.497 12.8553C157.027 9.56435 160.272 9.30849 161.23 9.30849C161.255 9.30849 161.651 9.30444 161.651 9.30444H161.707C162.667 9.30444 165.92 9.56049 167.451 12.8536C167.962 13.9518 167.836 15.8772 167.734 17.4237L167.73 17.4914C167.715 17.7063 167.702 17.9157 167.69 18.1162C167.715 18.1402 167.911 18.321 168.353 18.3374H168.353C168.69 18.3251 169.076 18.2221 169.5 18.032C169.624 17.9761 169.762 17.9643 169.855 17.9643C170 17.9643 170.144 17.9911 170.265 18.0393L170.273 18.0424C170.615 18.1592 170.84 18.3891 170.845 18.6301C170.85 18.857 170.669 19.1979 169.784 19.5334C169.692 19.5683 169.575 19.6037 169.45 19.6419C168.944 19.7958 168.18 20.0285 167.946 20.5577C167.818 20.8468 167.859 21.199 168.068 21.6053C168.07 21.6093 168.072 21.613 168.074 21.617C168.137 21.7591 169.666 25.1051 173.082 25.6445C173.208 25.6646 173.298 25.7724 173.291 25.8946C173.288 25.9403 173.277 25.9866 173.256 26.0315C173.115 26.3473 172.48 26.7958 170.259 27.1249C170.077 27.1515 170.007 27.3786 169.898 27.8543C169.859 28.0272 169.819 28.1973 169.765 28.376C169.717 28.5314 169.617 28.6039 169.446 28.6039H169.419C169.301 28.6039 169.134 28.5835 168.922 28.5436C168.546 28.4732 168.124 28.4082 167.588 28.4082C167.274 28.4082 166.95 28.434 166.624 28.4859C165.958 28.5925 165.392 28.9756 164.793 29.3819C163.922 29.9724 163.024 30.5815 161.623 30.5815Z" fill="white"/>
<ellipse cx="123.52" cy="63.8092" rx="16.8627" ry="16.2572" fill="#5E90FF"/>
<path d="M124.534 64.9212C120.51 64.9212 116.655 66.3361 113.902 68.8457V67.5729C113.902 63.3355 118.014 59.7609 123.273 59.7609H125.031H125.531V59.2609V55.8476L132.563 62.341L125.531 68.8345V65.4212V64.9212H125.031H124.534Z" fill="white" stroke="#7CA0E4"/>
<ellipse cx="16.8627" cy="93.4789" rx="16.8627" ry="16.2572" fill="#5E90FF"/>
<g clip-path="url(#clip0)">
<path d="M27.4017 96.8784L24.1165 100.041L20.8081 96.8641L21.9695 95.7398L23.2816 96.9995V89.3149C23.283 89.1054 23.1994 88.9082 23.0461 88.7595C22.8914 88.6093 22.6848 88.5266 22.4645 88.5266H13.6037L11.951 86.9398H22.4645C23.1266 86.9398 23.7478 87.1889 24.2138 87.641C24.6776 88.0913 24.9309 88.6882 24.9274 89.3225V97.0178L26.2387 95.7554L27.4017 96.8784ZM19.825 98.4441H11.2604C11.04 98.4441 10.8335 98.3615 10.6788 98.2114C10.5255 98.0627 10.4419 97.8654 10.4433 97.6559V89.9713L11.7554 91.231L12.9168 90.1067L9.60838 86.9302L6.32324 90.0925L7.48626 91.2154L8.79755 89.9532V97.6483C8.79401 98.2826 9.0473 98.8796 9.51109 99.3297C9.97714 99.7818 10.5984 100.031 11.2604 100.031H21.7739L20.1212 98.4441H19.825Z" fill="white"/>
</g>
<defs>
<linearGradient id="paint0_linear" x1="138.907" y1="188.177" x2="123.361" y2="250.636" gradientUnits="userSpaceOnUse">
<stop stop-color="#56CCF2" stop-opacity="0"/>
<stop offset="1" stop-color="#56CCF2"/>
</linearGradient>
<linearGradient id="paint1_linear" x1="75.9961" y1="182.121" x2="65.9167" y2="208.978" gradientUnits="userSpaceOnUse">
<stop stop-color="#503AE4"/>
<stop offset="0.46566" stop-color="#C74D77"/>
<stop offset="0.672191" stop-color="#F87749"/>
<stop offset="1" stop-color="#FFDB42"/>
</linearGradient>
<clipPath id="clip0">
<rect x="6.32324" y="83.3184" width="21.0784" height="20.3215" fill="white"/>
</clipPath>
</defs>
</svg>
