<svg width="765" height="516" viewBox="0 0 765 516" fill="none" xmlns="http://www.w3.org/2000/svg">
<path d="M587.496 473.18C601.264 473.18 612.425 461.37 612.425 446.802C612.425 432.233 601.264 420.423 587.496 420.423C573.728 420.423 562.567 432.233 562.567 446.802C562.567 461.37 573.728 473.18 587.496 473.18Z" fill="#FBD56F"/>
<path opacity="0.1" d="M587.496 473.18C601.264 473.18 612.425 461.37 612.425 446.802C612.425 432.233 601.264 420.423 587.496 420.423C573.728 420.423 562.567 432.233 562.567 446.802C562.567 461.37 573.728 473.18 587.496 473.18Z" fill="black"/>
<path d="M591.798 473.18C605.566 473.18 616.727 461.633 616.727 447.389C616.727 433.145 605.566 421.598 591.798 421.598C578.03 421.598 566.869 433.145 566.869 447.389C566.869 461.633 578.03 473.18 591.798 473.18Z" fill="#FBD56F"/>
<path d="M601.895 470.762L599.302 469.323C599.302 469.323 598.089 474.368 598.486 477.964C598.525 478.329 598.675 478.672 598.917 478.949C599.158 479.226 599.479 479.422 599.836 479.511C605.801 480.988 634.233 487.28 653.784 478.418C654.068 478.289 654.313 478.088 654.495 477.836C654.677 477.584 654.79 477.289 654.823 476.981C655.063 474.771 654.214 470.211 653.875 469.323C653.146 467.411 601.895 470.762 601.895 470.762Z" fill="#FBD56F"/>
<path opacity="0.1" d="M601.895 470.762L599.302 469.323C599.302 469.323 598.089 474.368 598.486 477.964C598.525 478.329 598.675 478.672 598.917 478.949C599.158 479.226 599.479 479.422 599.836 479.511C605.801 480.988 634.233 487.28 653.784 478.418C654.068 478.289 654.313 478.088 654.495 477.836C654.677 477.584 654.79 477.289 654.823 476.981C655.063 474.771 654.214 470.211 653.875 469.323C653.146 467.411 601.895 470.762 601.895 470.762Z" fill="black"/>
<path d="M626.589 475.454C641.659 475.454 653.876 472.709 653.876 469.323C653.876 465.936 641.659 463.191 626.589 463.191C611.519 463.191 599.302 465.936 599.302 469.323C599.302 472.709 611.519 475.454 626.589 475.454Z" fill="#FBD56F"/>
<path d="M612.32 461.715L609.727 460.276C609.727 460.276 608.514 465.322 608.911 468.917C608.95 469.282 609.1 469.626 609.342 469.903C609.583 470.179 609.904 470.375 610.261 470.465C616.226 471.941 644.658 478.233 664.209 469.371C664.493 469.242 664.738 469.042 664.92 468.79C665.102 468.538 665.215 468.243 665.248 467.934C665.488 465.724 664.639 461.164 664.3 460.276C663.571 458.364 612.32 461.715 612.32 461.715Z" fill="#FBD56F"/>
<path opacity="0.1" d="M612.32 461.715L609.727 460.276C609.727 460.276 608.514 465.322 608.911 468.917C608.95 469.282 609.1 469.626 609.342 469.903C609.583 470.179 609.904 470.375 610.261 470.465C616.226 471.941 644.658 478.233 664.209 469.371C664.493 469.242 664.738 469.042 664.92 468.79C665.102 468.538 665.215 468.243 665.248 467.934C665.488 465.724 664.639 461.164 664.3 460.276C663.571 458.364 612.32 461.715 612.32 461.715Z" fill="black"/>
<path d="M637.014 466.408C652.084 466.408 664.3 463.662 664.3 460.276C664.3 456.89 652.084 454.145 637.014 454.145C621.944 454.145 609.727 456.89 609.727 460.276C609.727 463.662 621.944 466.408 637.014 466.408Z" fill="#FBD56F"/>
<path d="M621.537 449.826L618.943 448.386C618.943 448.386 617.731 453.432 618.127 457.028C618.166 457.392 618.316 457.736 618.558 458.013C618.799 458.29 619.12 458.486 619.477 458.575C625.443 460.052 653.874 466.343 673.425 457.481C673.709 457.353 673.954 457.152 674.136 456.9C674.318 456.648 674.432 456.353 674.465 456.044C674.704 453.835 673.855 449.275 673.517 448.386C672.787 446.474 621.537 449.826 621.537 449.826Z" fill="#FBD56F"/>
<path opacity="0.1" d="M621.537 449.826L618.943 448.386C618.943 448.386 617.731 453.432 618.127 457.028C618.166 457.392 618.316 457.736 618.558 458.013C618.799 458.29 619.12 458.486 619.477 458.575C625.443 460.052 653.874 466.343 673.425 457.481C673.709 457.353 673.954 457.152 674.136 456.9C674.318 456.648 674.432 456.353 674.465 456.044C674.704 453.835 673.855 449.275 673.517 448.386C672.787 446.474 621.537 449.826 621.537 449.826Z" fill="black"/>
<path d="M646.23 454.518C661.3 454.518 673.517 451.773 673.517 448.386C673.517 445 661.3 442.255 646.23 442.255C631.16 442.255 618.944 445 618.944 448.386C618.944 451.773 631.16 454.518 646.23 454.518Z" fill="#FBD56F"/>
<path d="M611.33 437.449L608.737 436.009C608.737 436.009 607.524 441.055 607.921 444.651C607.96 445.015 608.11 445.359 608.352 445.636C608.593 445.913 608.914 446.109 609.271 446.198C615.236 447.675 643.668 453.967 663.219 445.105C663.503 444.976 663.748 444.775 663.93 444.523C664.112 444.271 664.225 443.976 664.258 443.667C664.498 441.458 663.649 436.898 663.31 436.009C662.581 434.097 611.33 437.449 611.33 437.449Z" fill="#FBD56F"/>
<path opacity="0.1" d="M611.33 437.449L608.737 436.009C608.737 436.009 607.524 441.055 607.921 444.651C607.96 445.015 608.11 445.359 608.352 445.636C608.593 445.913 608.914 446.109 609.271 446.198C615.236 447.675 643.668 453.967 663.219 445.105C663.503 444.976 663.748 444.775 663.93 444.523C664.112 444.271 664.225 443.976 664.258 443.667C664.498 441.458 663.649 436.898 663.31 436.009C662.581 434.097 611.33 437.449 611.33 437.449Z" fill="black"/>
<path d="M636.024 442.14C651.094 442.14 663.31 439.395 663.31 436.009C663.31 432.623 651.094 429.877 636.024 429.877C620.954 429.877 608.737 432.623 608.737 436.009C608.737 439.395 620.954 442.14 636.024 442.14Z" fill="#FBD56F"/>
<path d="M634.291 427.516L631.698 426.076C631.698 426.076 630.485 431.122 630.881 434.718C630.92 435.082 631.071 435.426 631.312 435.703C631.554 435.98 631.875 436.176 632.232 436.265C638.197 437.742 666.629 444.034 686.18 435.172C686.463 435.043 686.708 434.842 686.89 434.59C687.073 434.338 687.186 434.043 687.219 433.735C687.459 431.525 686.61 426.965 686.271 426.077C685.542 424.165 634.291 427.516 634.291 427.516Z" fill="#FBD56F"/>
<path opacity="0.1" d="M634.291 427.516L631.698 426.076C631.698 426.076 630.485 431.122 630.881 434.718C630.92 435.082 631.071 435.426 631.312 435.703C631.554 435.98 631.875 436.176 632.232 436.265C638.197 437.742 666.629 444.034 686.18 435.172C686.463 435.043 686.708 434.842 686.89 434.59C687.073 434.338 687.186 434.043 687.219 433.735C687.459 431.525 686.61 426.965 686.271 426.077C685.542 424.165 634.291 427.516 634.291 427.516Z" fill="black"/>
<path d="M658.985 432.208C674.055 432.208 686.271 429.463 686.271 426.077C686.271 422.69 674.055 419.945 658.985 419.945C643.915 419.945 631.698 422.69 631.698 426.077C631.698 429.463 643.915 432.208 658.985 432.208Z" fill="#FBD56F"/>
<path d="M618.778 420.839L616.184 419.4C616.184 419.4 614.972 424.446 615.368 428.041C615.407 428.406 615.557 428.75 615.799 429.027C616.04 429.303 616.361 429.499 616.718 429.589C622.684 431.065 651.115 437.357 670.666 428.495C670.95 428.366 671.195 428.166 671.377 427.914C671.559 427.662 671.673 427.367 671.706 427.058C671.945 424.848 671.096 420.288 670.758 419.4C670.028 417.488 618.778 420.839 618.778 420.839Z" fill="#FBD56F"/>
<path opacity="0.1" d="M618.778 420.839L616.184 419.4C616.184 419.4 614.972 424.446 615.368 428.041C615.407 428.406 615.557 428.75 615.799 429.027C616.04 429.303 616.361 429.499 616.718 429.589C622.684 431.065 651.115 437.357 670.666 428.495C670.95 428.366 671.195 428.166 671.377 427.914C671.559 427.662 671.673 427.367 671.706 427.058C671.945 424.848 671.096 420.288 670.758 419.4C670.028 417.488 618.778 420.839 618.778 420.839Z" fill="black"/>
<path d="M643.471 425.532C658.541 425.532 670.758 422.786 670.758 419.4C670.758 416.014 658.541 413.269 643.471 413.269C628.401 413.269 616.185 416.014 616.185 419.4C616.185 422.786 628.401 425.532 643.471 425.532Z" fill="#FBD56F"/>
<path d="M629.135 407.951L626.542 406.512C626.542 406.512 625.329 411.557 625.725 415.153C625.764 415.517 625.915 415.861 626.156 416.138C626.398 416.415 626.719 416.611 627.076 416.7C633.041 418.177 661.473 424.469 681.024 415.607C681.307 415.478 681.552 415.277 681.735 415.025C681.917 414.773 682.03 414.478 682.063 414.17C682.303 411.96 681.454 407.4 681.115 406.512C680.386 404.6 629.135 407.951 629.135 407.951Z" fill="#FBD56F"/>
<path opacity="0.1" d="M629.135 407.951L626.542 406.512C626.542 406.512 625.329 411.557 625.725 415.153C625.764 415.517 625.915 415.861 626.156 416.138C626.398 416.415 626.719 416.611 627.076 416.7C633.041 418.177 661.473 424.469 681.024 415.607C681.307 415.478 681.552 415.277 681.735 415.025C681.917 414.773 682.03 414.478 682.063 414.17C682.303 411.96 681.454 407.4 681.115 406.512C680.386 404.6 629.135 407.951 629.135 407.951Z" fill="black"/>
<path d="M653.829 412.643C668.899 412.643 681.115 409.898 681.115 406.512C681.115 403.125 668.899 400.38 653.829 400.38C638.759 400.38 626.542 403.125 626.542 406.512C626.542 409.898 638.759 412.643 653.829 412.643Z" fill="#FBD56F"/>
<path d="M634.244 392.653L631.651 391.213C631.651 391.213 630.438 396.259 630.834 399.854C630.873 400.219 631.024 400.563 631.265 400.84C631.507 401.117 631.828 401.313 632.185 401.402C638.15 402.879 666.582 409.17 686.133 400.308C686.416 400.179 686.661 399.979 686.843 399.727C687.026 399.475 687.139 399.18 687.172 398.871C687.412 396.661 686.563 392.102 686.224 391.213C685.495 389.301 634.244 392.653 634.244 392.653Z" fill="#FBD56F"/>
<path opacity="0.1" d="M634.244 392.653L631.651 391.213C631.651 391.213 630.438 396.259 630.834 399.854C630.873 400.219 631.024 400.563 631.265 400.84C631.507 401.117 631.828 401.313 632.185 401.402C638.15 402.879 666.582 409.17 686.133 400.308C686.416 400.179 686.661 399.979 686.843 399.727C687.026 399.475 687.139 399.18 687.172 398.871C687.412 396.661 686.563 392.102 686.224 391.213C685.495 389.301 634.244 392.653 634.244 392.653Z" fill="black"/>
<path d="M658.937 397.345C674.007 397.345 686.224 394.6 686.224 391.213C686.224 387.827 674.007 385.082 658.937 385.082C643.867 385.082 631.651 387.827 631.651 391.213C631.651 394.6 643.867 397.345 658.937 397.345Z" fill="#FBD56F"/>
<path d="M680.306 474.31L677.713 472.871C677.713 472.871 676.5 477.917 676.897 481.512C676.936 481.877 677.086 482.221 677.328 482.498C677.569 482.774 677.89 482.97 678.247 483.059C684.212 484.536 712.644 490.828 732.195 481.966C732.479 481.837 732.723 481.637 732.906 481.385C733.088 481.133 733.201 480.838 733.234 480.529C733.474 478.319 732.625 473.759 732.286 472.871C731.557 470.959 680.306 474.31 680.306 474.31Z" fill="#FBD56F"/>
<path opacity="0.1" d="M680.306 474.31L677.713 472.871C677.713 472.871 676.5 477.917 676.897 481.512C676.936 481.877 677.086 482.221 677.328 482.498C677.569 482.774 677.89 482.97 678.247 483.059C684.212 484.536 712.644 490.828 732.195 481.966C732.479 481.837 732.723 481.637 732.906 481.385C733.088 481.133 733.201 480.838 733.234 480.529C733.474 478.319 732.625 473.759 732.286 472.871C731.557 470.959 680.306 474.31 680.306 474.31Z" fill="black"/>
<path d="M705 479.002C720.07 479.002 732.286 476.257 732.286 472.871C732.286 469.484 720.07 466.739 705 466.739C689.93 466.739 677.713 469.484 677.713 472.871C677.713 476.257 689.93 479.002 705 479.002Z" fill="#FBD56F"/>
<path d="M689.522 462.42L686.929 460.981C686.929 460.981 685.716 466.027 686.113 469.622C686.152 469.987 686.302 470.331 686.544 470.608C686.785 470.884 687.106 471.081 687.463 471.17C693.428 472.646 721.86 478.938 741.411 470.076C741.695 469.947 741.94 469.747 742.122 469.495C742.304 469.243 742.417 468.948 742.45 468.639C742.69 466.429 741.841 461.869 741.502 460.981C740.773 459.069 689.522 462.42 689.522 462.42Z" fill="#FBD56F"/>
<path opacity="0.1" d="M689.522 462.42L686.929 460.981C686.929 460.981 685.716 466.027 686.113 469.622C686.152 469.987 686.302 470.331 686.544 470.608C686.785 470.884 687.106 471.081 687.463 471.17C693.428 472.646 721.86 478.938 741.411 470.076C741.695 469.947 741.94 469.747 742.122 469.495C742.304 469.243 742.417 468.948 742.45 468.639C742.69 466.429 741.841 461.869 741.502 460.981C740.773 459.069 689.522 462.42 689.522 462.42Z" fill="black"/>
<path d="M714.216 467.112C729.286 467.112 741.502 464.367 741.502 460.981C741.502 457.595 729.286 454.849 714.216 454.849C699.146 454.849 686.929 457.595 686.929 460.981C686.929 464.367 699.146 467.112 714.216 467.112Z" fill="#FBD56F"/>
<path d="M679.316 450.043L676.723 448.604C676.723 448.604 675.51 453.649 675.906 457.245C675.945 457.609 676.096 457.953 676.337 458.23C676.579 458.507 676.9 458.703 677.257 458.792C683.222 460.269 711.654 466.561 731.205 457.699C731.488 457.57 731.733 457.369 731.915 457.117C732.098 456.865 732.211 456.571 732.244 456.262C732.484 454.052 731.635 449.492 731.296 448.604C730.567 446.692 679.316 450.043 679.316 450.043Z" fill="#FBD56F"/>
<path opacity="0.1" d="M679.316 450.043L676.723 448.604C676.723 448.604 675.51 453.649 675.906 457.245C675.945 457.609 676.096 457.953 676.337 458.23C676.579 458.507 676.9 458.703 677.257 458.792C683.222 460.269 711.654 466.561 731.205 457.699C731.488 457.57 731.733 457.369 731.915 457.117C732.098 456.865 732.211 456.571 732.244 456.262C732.484 454.052 731.635 449.492 731.296 448.604C730.567 446.692 679.316 450.043 679.316 450.043Z" fill="black"/>
<path d="M704.009 454.735C719.079 454.735 731.296 451.99 731.296 448.604C731.296 445.217 719.079 442.472 704.009 442.472C688.94 442.472 676.723 445.217 676.723 448.604C676.723 451.99 688.94 454.735 704.009 454.735Z" fill="#FBD56F"/>
<path d="M702.277 440.11L699.683 438.671C699.683 438.671 698.471 443.717 698.867 447.312C698.906 447.677 699.056 448.021 699.298 448.298C699.539 448.574 699.86 448.77 700.217 448.86C706.183 450.336 734.614 456.628 754.165 447.766C754.449 447.637 754.694 447.437 754.876 447.185C755.058 446.933 755.172 446.638 755.205 446.329C755.444 444.119 754.595 439.559 754.257 438.671C753.527 436.759 702.277 440.11 702.277 440.11Z" fill="#FBD56F"/>
<path opacity="0.1" d="M702.277 440.11L699.683 438.671C699.683 438.671 698.471 443.717 698.867 447.312C698.906 447.677 699.056 448.021 699.298 448.298C699.539 448.574 699.86 448.77 700.217 448.86C706.183 450.336 734.614 456.628 754.165 447.766C754.449 447.637 754.694 447.437 754.876 447.185C755.058 446.933 755.172 446.638 755.205 446.329C755.444 444.119 754.595 439.559 754.257 438.671C753.527 436.759 702.277 440.11 702.277 440.11Z" fill="black"/>
<path d="M726.97 444.803C742.04 444.803 754.257 442.057 754.257 438.671C754.257 435.285 742.04 432.54 726.97 432.54C711.9 432.54 699.683 435.285 699.683 438.671C699.683 442.057 711.9 444.803 726.97 444.803Z" fill="#FBD56F"/>
<path d="M686.763 433.434L684.17 431.995C684.17 431.995 682.957 437.04 683.354 440.636C683.393 441.001 683.543 441.345 683.785 441.621C684.026 441.898 684.347 442.094 684.704 442.183C690.669 443.66 719.101 449.952 738.652 441.09C738.936 440.961 739.18 440.761 739.363 440.509C739.545 440.257 739.658 439.962 739.691 439.653C739.931 437.443 739.082 432.883 738.743 431.995C738.014 430.083 686.763 433.434 686.763 433.434Z" fill="#FBD56F"/>
<path opacity="0.1" d="M686.763 433.434L684.17 431.995C684.17 431.995 682.957 437.04 683.354 440.636C683.393 441.001 683.543 441.345 683.785 441.621C684.026 441.898 684.347 442.094 684.704 442.183C690.669 443.66 719.101 449.952 738.652 441.09C738.936 440.961 739.18 440.761 739.363 440.509C739.545 440.257 739.658 439.962 739.691 439.653C739.931 437.443 739.082 432.883 738.743 431.995C738.014 430.083 686.763 433.434 686.763 433.434Z" fill="black"/>
<path d="M711.457 438.126C726.527 438.126 738.743 435.381 738.743 431.995C738.743 428.608 726.527 425.863 711.457 425.863C696.387 425.863 684.17 428.608 684.17 431.995C684.17 435.381 696.387 438.126 711.457 438.126Z" fill="#FBD56F"/>
<path d="M697.121 420.546L694.528 419.106C694.528 419.106 693.315 424.152 693.711 427.747C693.75 428.112 693.901 428.456 694.142 428.733C694.384 429.01 694.705 429.206 695.061 429.295C701.027 430.772 729.458 437.063 749.01 428.201C749.293 428.073 749.538 427.872 749.72 427.62C749.903 427.368 750.016 427.073 750.049 426.764C750.289 424.555 749.44 419.995 749.101 419.106C748.372 417.194 697.121 420.546 697.121 420.546Z" fill="#FBD56F"/>
<path opacity="0.1" d="M697.121 420.546L694.528 419.106C694.528 419.106 693.315 424.152 693.711 427.747C693.75 428.112 693.901 428.456 694.142 428.733C694.384 429.01 694.705 429.206 695.061 429.295C701.027 430.772 729.458 437.063 749.01 428.201C749.293 428.073 749.538 427.872 749.72 427.62C749.903 427.368 750.016 427.073 750.049 426.764C750.289 424.555 749.44 419.995 749.101 419.106C748.372 417.194 697.121 420.546 697.121 420.546Z" fill="black"/>
<path d="M721.814 425.238C736.884 425.238 749.101 422.492 749.101 419.106C749.101 415.72 736.884 412.975 721.814 412.975C706.744 412.975 694.527 415.72 694.527 419.106C694.527 422.492 706.744 425.238 721.814 425.238Z" fill="#FBD56F"/>
<path d="M702.23 405.247L699.637 403.808C699.637 403.808 698.424 408.854 698.82 412.449C698.859 412.814 699.01 413.158 699.251 413.435C699.493 413.711 699.813 413.907 700.17 413.997C706.136 415.473 734.567 421.765 754.119 412.903C754.402 412.774 754.647 412.574 754.829 412.322C755.011 412.07 755.125 411.775 755.158 411.466C755.398 409.256 754.549 404.696 754.21 403.808C753.48 401.896 702.23 405.247 702.23 405.247Z" fill="#FBD56F"/>
<path opacity="0.1" d="M702.23 405.247L699.637 403.808C699.637 403.808 698.424 408.854 698.82 412.449C698.859 412.814 699.01 413.158 699.251 413.435C699.493 413.711 699.813 413.907 700.17 413.997C706.136 415.473 734.567 421.765 754.119 412.903C754.402 412.774 754.647 412.574 754.829 412.322C755.011 412.07 755.125 411.775 755.158 411.466C755.398 409.256 754.549 404.696 754.21 403.808C753.48 401.896 702.23 405.247 702.23 405.247Z" fill="black"/>
<path d="M726.923 409.939C741.993 409.939 754.21 407.194 754.21 403.808C754.21 400.422 741.993 397.677 726.923 397.677C711.853 397.677 699.637 400.422 699.637 403.808C699.637 407.194 711.853 409.939 726.923 409.939Z" fill="#FBD56F"/>
<path opacity="0.1" d="M764.852 401.881C764.852 401.881 752.375 407.746 751.313 410.305C750.251 412.863 764.852 401.881 764.852 401.881Z" fill="black"/>
<path opacity="0.1" d="M764.056 409.423C764.056 409.423 752.796 414.186 751.258 415.377C749.721 416.568 764.056 409.423 764.056 409.423Z" fill="black"/>
<path opacity="0.1" d="M758.879 419.612C758.879 419.612 753.892 423.317 751.143 420.406C748.393 417.494 758.879 419.612 758.879 419.612Z" fill="black"/>
<path opacity="0.1" d="M715.209 356.494C715.209 356.494 707.388 373.144 704.325 374.093C701.261 375.042 715.209 356.494 715.209 356.494Z" fill="black"/>
<path opacity="0.1" d="M713.882 349.084C713.882 349.084 711.186 354.906 709.547 354.906C707.909 354.906 713.882 349.084 713.882 349.084Z" fill="black"/>
<path d="M644.126 510.816C657.894 510.816 669.055 499.006 669.055 484.437C669.055 469.869 657.894 458.059 644.126 458.059C630.358 458.059 619.197 469.869 619.197 484.437C619.197 499.006 630.358 510.816 644.126 510.816Z" fill="#FBD56F"/>
<path opacity="0.1" d="M644.126 510.816C657.894 510.816 669.055 499.006 669.055 484.437C669.055 469.869 657.894 458.059 644.126 458.059C630.358 458.059 619.197 469.869 619.197 484.437C619.197 499.006 630.358 510.816 644.126 510.816Z" fill="black"/>
<path d="M648.428 510.816C662.196 510.816 673.357 499.269 673.357 485.025C673.357 470.78 662.196 459.233 648.428 459.233C634.66 459.233 623.499 470.78 623.499 485.025C623.499 499.269 634.66 510.816 648.428 510.816Z" fill="#FBD56F"/>
<path d="M565.63 459.91C567.002 461.783 568.123 463.825 568.967 465.985C569.19 466.544 569.408 467.13 569.615 467.746C572.932 477.629 567.676 489.48 566.173 488.201C564.671 486.923 559.988 484.551 559.083 487.884C558.177 491.217 554.833 494.624 554.833 494.624C548.739 500.733 543.223 494.132 539.603 487.312C538.42 485.061 537.368 482.745 536.453 480.374C535.649 478.279 535.188 476.831 535.188 476.831L560.568 455.274C560.568 455.274 563.022 456.397 565.63 459.91Z" fill="#6C63FF"/>
<path d="M525.629 473.695C527 475.567 528.122 477.609 528.966 479.769C529.189 480.328 529.407 480.915 529.614 481.531C532.931 491.413 527.675 503.264 526.172 501.986C524.669 500.707 519.987 498.336 519.081 501.668C518.176 505.001 514.831 508.408 514.831 508.408C508.738 514.518 503.222 507.917 499.602 501.096C498.419 498.846 497.367 496.529 496.452 494.158C495.648 492.063 495.186 490.616 495.186 490.616L520.567 469.059C520.567 469.059 523.02 470.181 525.629 473.695Z" fill="#6C63FF"/>
<path d="M445.31 492.738C445.167 495.052 444.724 497.338 443.99 499.538C443.804 500.11 443.596 500.701 443.361 501.306C439.588 511.025 427.955 516.804 427.616 514.864C427.278 512.924 425.191 508.119 422.361 510.109C419.53 512.099 414.774 512.594 414.774 512.594C406.171 513.421 406.151 504.83 407.73 497.276C408.26 494.79 408.933 492.338 409.747 489.93C410.469 487.806 411.04 486.398 411.04 486.398L444.381 485.948C444.381 485.948 445.551 488.374 445.31 492.738Z" fill="#6C63FF"/>
<path d="M402.232 481.908C402.089 484.222 401.646 486.507 400.912 488.707C400.726 489.279 400.518 489.87 400.283 490.475C396.51 500.194 384.877 505.974 384.538 504.034C384.2 502.094 382.113 497.289 379.282 499.279C376.452 501.269 371.696 501.763 371.696 501.763C363.093 502.591 363.073 493.999 364.652 486.445C365.182 483.96 365.855 481.507 366.669 479.1C367.391 476.976 367.962 475.567 367.962 475.567L401.303 475.118C401.303 475.118 402.473 477.543 402.232 481.908Z" fill="#6C63FF"/>
<path d="M565.63 459.91C567.002 461.783 568.123 463.825 568.967 465.985C569.19 466.544 569.408 467.13 569.615 467.746C572.932 477.629 567.676 489.48 566.173 488.201C564.671 486.923 559.988 484.551 559.083 487.884C558.177 491.217 554.833 494.624 554.833 494.624C548.739 500.733 543.223 494.132 539.603 487.312C538.42 485.061 537.368 482.745 536.453 480.374C535.649 478.279 535.188 476.831 535.188 476.831L560.568 455.274C560.568 455.274 563.022 456.397 565.63 459.91Z" fill="#FC59FF"/>
<path d="M525.629 473.695C527 475.567 528.122 477.609 528.966 479.769C529.189 480.328 529.407 480.915 529.614 481.531C532.931 491.413 527.675 503.264 526.172 501.986C524.669 500.707 519.987 498.336 519.081 501.668C518.176 505.001 514.831 508.408 514.831 508.408C508.738 514.518 503.222 507.917 499.602 501.096C498.419 498.846 497.367 496.529 496.452 494.158C495.648 492.063 495.186 490.616 495.186 490.616L520.567 469.059C520.567 469.059 523.02 470.181 525.629 473.695Z" fill="#FC59FF"/>
<path d="M445.31 492.738C445.167 495.052 444.724 497.338 443.99 499.538C443.804 500.11 443.596 500.701 443.361 501.306C439.588 511.025 427.955 516.804 427.616 514.864C427.278 512.924 425.191 508.119 422.361 510.109C419.53 512.099 414.774 512.594 414.774 512.594C406.171 513.421 406.151 504.83 407.73 497.276C408.26 494.79 408.933 492.338 409.747 489.93C410.469 487.806 411.04 486.398 411.04 486.398L444.381 485.948C444.381 485.948 445.551 488.374 445.31 492.738Z" fill="#FC59FF"/>
<path d="M402.232 481.908C402.089 484.222 401.646 486.507 400.912 488.707C400.726 489.279 400.518 489.87 400.283 490.475C396.51 500.194 384.877 505.974 384.538 504.034C384.2 502.094 382.113 497.289 379.282 499.279C376.452 501.269 371.696 501.763 371.696 501.763C363.093 502.591 363.073 493.999 364.652 486.445C365.182 483.96 365.855 481.507 366.669 479.1C367.391 476.976 367.962 475.567 367.962 475.567L401.303 475.118C401.303 475.118 402.473 477.543 402.232 481.908Z" fill="#FC59FF"/>
<path d="M633.331 336.246C633.331 425.018 603.207 496.982 464.189 496.982C370.774 496.982 298.504 473.844 295.047 336.246C292.817 247.502 370.774 175.51 464.189 175.51C557.604 175.51 633.331 247.474 633.331 336.246Z" fill="#FEBBFF"/>
<path opacity="0.2" d="M432.459 178.316H432.479C432.474 178.319 432.469 178.321 432.464 178.321L432.459 178.316Z" fill="black"/>
<path opacity="0.2" d="M432.79 178.262C433.22 178.193 434.069 178.075 435.304 177.982L432.553 178.307C432.592 178.297 432.642 178.287 432.701 178.277C432.731 178.272 432.755 178.267 432.79 178.262Z" fill="black"/>
<path opacity="0.2" d="M557.773 243.94L545.427 248.371C539.133 239.957 532.361 231.909 525.144 224.268C517.268 215.893 508.673 208.218 499.459 201.331C467.848 177.977 443.398 177.381 435.323 177.982L453.882 175.806C471.423 178.814 488.291 184.893 503.706 193.76C514.491 199.958 524.536 207.355 533.648 215.81C549.807 230.761 557.773 243.94 557.773 243.94Z" fill="black"/>
<path d="M446.164 252.309C446.164 252.309 429.867 198.156 443.694 183.387C443.694 183.387 465.424 176.003 481.72 217.848L446.164 252.309Z" fill="#FD97FF"/>
<path d="M528.685 201.73C528.685 201.73 571.903 165.119 591.022 171.819C591.022 171.819 606.526 188.696 574.617 220.369L528.685 201.73Z" fill="#6C63FF"/>
<path d="M528.685 201.73C528.685 201.73 571.903 165.119 591.022 171.819C591.022 171.819 606.526 188.696 574.617 220.369L528.685 201.73Z" fill="#FD97FF"/>
<path d="M663.456 377.107C663.456 424.824 629.107 462.521 596.787 462.521C564.467 462.521 546.414 424.824 546.414 377.107C546.414 329.39 572.669 292.573 604.935 290.708C656.048 287.755 663.456 329.39 663.456 377.107Z" fill="#6C63FF"/>
<path d="M663.456 377.107C663.456 424.824 629.107 462.521 596.787 462.521C564.467 462.521 546.414 424.824 546.414 377.107C546.414 329.39 572.669 292.573 604.935 290.708C656.048 287.755 663.456 329.39 663.456 377.107Z" fill="#FD97FF"/>
<path d="M594.811 398.03C600.812 398.03 605.676 391.859 605.676 384.246C605.676 376.633 600.812 370.461 594.811 370.461C588.811 370.461 583.947 376.633 583.947 384.246C583.947 391.859 588.811 398.03 594.811 398.03Z" fill="#FC59FF"/>
<path d="M633.331 386.215C639.332 386.215 644.196 380.043 644.196 372.43C644.196 364.817 639.332 358.646 633.331 358.646C627.331 358.646 622.467 364.817 622.467 372.43C622.467 380.043 627.331 386.215 633.331 386.215Z" fill="#FC59FF"/>
<path d="M535.757 206.919C535.765 210.007 535.042 213.053 533.648 215.81C531.809 219.474 528.824 222.443 525.144 224.268C517.268 215.893 508.674 208.219 499.459 201.332C500.28 198.519 501.733 195.93 503.707 193.76C505.408 191.869 507.489 190.355 509.815 189.316C512.141 188.277 514.66 187.737 517.208 187.729C527.451 187.729 535.757 196.32 535.757 206.919Z" fill="#FAD46F"/>
<path d="M97.0859 139.612L114.598 165.996L179.47 176.694C179.47 176.694 211.233 177.276 213.134 185.626C214.828 193.07 194.344 201.276 183.133 193.614L111.573 193.722L73.8421 164.091L97.0859 139.612Z" fill="#FFB8B8"/>
<path d="M94.2715 455.919L91.8607 489.044L68.5565 487.466L72.5744 455.919H94.2715Z" fill="#FFB8B8"/>
<path d="M87.8425 478.791C87.8425 478.791 91.0569 466.96 94.2713 467.749L99.0928 476.425C99.0928 476.425 120.79 496.142 127.219 496.931C127.219 496.931 148.112 503.24 127.219 512.704H103.111C103.111 512.704 87.0389 511.916 83.8245 512.704C80.6102 513.493 62.1275 513.493 61.3239 508.761C60.5203 504.029 63.7347 494.565 63.7347 494.565C63.7347 494.565 66.6982 471.296 70.038 475.832C71.7834 478.265 73.7053 480.572 75.7886 482.734L87.8425 478.791Z" fill="#2F2E41"/>
<path d="M34.0017 456.313L31.5909 489.438L8.28668 487.861L12.3046 456.313H34.0017Z" fill="#FFB8B8"/>
<path d="M27.573 479.185C27.573 479.185 30.7874 467.355 34.0017 468.143L38.8233 476.819C38.8233 476.819 60.5204 496.536 66.9491 497.325C66.9491 497.325 87.8426 503.634 66.9491 513.099H42.8413C42.8413 513.099 26.7694 511.521 23.555 512.31C20.3406 513.099 1.85795 513.099 1.05436 508.366C0.250763 503.634 3.46514 494.959 3.46514 494.959C3.46514 494.959 6.42863 471.691 9.76843 476.226C11.5139 478.66 13.4357 480.966 15.5191 483.129L27.573 479.185Z" fill="#2F2E41"/>
<path d="M125.611 252.831L129.629 258.352V269.394L103.914 363.248L99.0928 383.753C99.0928 383.753 99.0928 462.622 94.2712 462.622C89.4497 462.622 67.7526 464.988 67.7526 460.256C67.7526 455.524 69.3598 348.263 69.3598 348.263L47.6627 388.486C47.6627 388.486 38.0196 459.467 34.8052 460.256C31.5908 461.045 9.09018 460.256 7.48299 455.524L12.3046 410.569C12.3046 410.569 11.501 360.093 25.1621 349.051C25.1621 349.051 27.5729 335.644 29.9836 330.123C32.3944 324.602 36.4124 321.447 34.0016 317.504C31.5908 313.56 37.216 270.183 37.216 270.183C37.216 270.183 35.6088 256.775 38.8232 252.831C42.0376 248.888 125.611 252.831 125.611 252.831Z" fill="#2F2E41"/>
<path d="M74.1816 73.7996C60.4234 73.7996 49.2701 62.8533 49.2701 49.3503C49.2701 35.8473 60.4234 24.901 74.1816 24.901C87.9398 24.901 99.093 35.8473 99.093 49.3503C99.093 62.8533 87.9398 73.7996 74.1816 73.7996Z" fill="#FFB8B8"/>
<path d="M58.5116 63.941L60.1188 79.7147L53.69 85.2355L94.6733 104.164C84.5778 87.236 81.5879 71.8219 86.6374 60.7863L58.5116 63.941Z" fill="#FFB8B8"/>
<path d="M86.637 87.602C86.637 87.602 93.0658 100.221 85.0298 97.0662L60.1184 79.7151C60.1184 79.7151 32.7962 89.968 23.153 101.798L31.189 185.399L37.6177 244.551C37.6177 244.551 33.5998 251.649 34.4034 252.437C35.207 253.226 36.0105 251.649 35.207 254.015C34.4034 256.381 31.9926 254.015 34.4034 256.381C36.8141 258.747 39.2249 256.381 36.8141 258.747C34.4034 261.113 36.8141 261.902 36.8141 261.902C36.8141 261.902 40.0285 242.973 68.1543 257.17C96.2802 271.366 108.334 275.309 129.228 257.958L105.12 168.048L103.173 134.137C102.523 122.811 100.469 111.604 97.0572 100.764C95.2143 94.9096 92.0038 89.156 86.637 86.0246V87.602Z" fill="white"/>
<path d="M43.6449 156.612L31.591 185.793L59.7168 244.156C59.7168 244.156 66.1456 251.254 62.1276 259.93C60.0518 264.565 57.6346 269.046 54.8953 273.337C54.8953 273.337 47.6629 270.183 47.6629 256.775L6.67959 199.201L9.89397 151.88L43.6449 156.612Z" fill="#FFB8B8"/>
<path d="M45.2519 104.559C45.2519 104.559 56.5022 115.6 51.6806 132.951C46.859 150.303 42.8411 163.71 42.8411 163.71C42.8411 163.71 23.5548 149.514 7.4829 158.189C7.4829 158.189 9.89369 106.925 23.5548 102.193C37.2159 97.4606 45.2519 104.559 45.2519 104.559Z" fill="white"/>
<path d="M53.703 28.3763C53.703 28.3763 61.3143 12.1913 75.9024 15.9263C90.4906 19.6613 98.7361 25.2638 99.3703 30.8663C100.005 36.4688 99.0532 44.8726 99.0532 44.8726C99.0532 44.8726 97.4676 33.3563 87.3193 35.8463C77.171 38.3363 61.3143 36.4688 61.3143 36.4688L58.7772 58.8789C58.7772 58.8789 54.4507 54.3528 51.2794 56.8428C48.1081 59.3328 43.5547 33.3563 53.703 28.3763Z" fill="#2F2E41"/>
<path d="M96.8773 36.9702C96.1406 37.644 95.3682 38.2738 94.564 38.8564C93.0281 39.97 91.396 40.9276 89.6912 41.7151C88.6821 42.1967 87.6517 42.6247 86.6041 42.9975C84.6626 43.6882 82.6796 44.2288 80.6717 44.6148C74.8162 45.7615 68.8567 45.7906 62.9328 45.8056C59.0599 45.8222 55.1854 45.8356 51.3092 45.8458C46.69 47.6699 31.2785 53.579 29.5736 51.7478C27.5651 49.5865 44.1443 43.638 44.1443 43.638L44.608 44.3178C43.0482 42.4235 42.9626 39.0976 43.3363 36.3546C44.0119 31.4479 45.1589 26.4858 47.6565 22.1863C50.1517 17.8943 54.1667 14.2996 58.8629 13.3545C60.9456 12.9294 63.3109 12.927 65.0625 11.8343C65.3263 11.6739 65.5726 11.4831 65.7964 11.2656C65.9122 11.1681 66.0195 11.06 66.1169 10.9427C66.3863 10.5788 66.6972 10.2496 67.0423 9.96275C68.0593 9.29027 69.3123 9.96451 70.3835 10.4441C70.5004 10.4958 70.6101 10.5453 70.7294 10.5896C70.9223 10.6711 71.1198 10.7416 71.3208 10.8009C75.2771 12.0932 79.8701 10.9278 83.9047 12.145C88.3279 13.4712 91.2475 17.2983 94.5644 20.3071C95.2336 20.9204 95.8716 21.4832 96.4643 22.0406C98.8446 24.2648 100.503 26.3698 100.437 30.6294C100.394 33.118 98.7006 35.2983 96.8773 36.9702Z" fill="#3F3D56"/>
<path d="M226.982 169.146L215.035 159.884C214.459 159.437 213.745 159.196 213.01 159.201C212.275 159.205 211.564 159.454 210.993 159.908L183.806 181.507C183.509 181.742 183.269 182.038 183.101 182.375C182.934 182.711 182.843 183.08 182.836 183.454C182.829 183.828 182.906 184.2 183.06 184.542C183.215 184.884 183.444 185.189 183.731 185.436L195.535 195.551C196.167 196.093 196.978 196.39 197.817 196.388C198.656 196.386 199.466 196.084 200.095 195.539L218.473 179.614L218.67 179.883L222.159 176.87L221.949 176.602L227.079 172.157C227.299 171.967 227.473 171.731 227.589 171.467C227.705 171.203 227.761 170.917 227.752 170.63C227.742 170.342 227.669 170.06 227.536 169.804C227.403 169.547 227.214 169.323 226.982 169.146Z" fill="white"/>
<path d="M216.152 161.67L214.757 160.589C214.357 160.279 213.86 160.112 213.35 160.117C212.84 160.121 212.346 160.297 211.952 160.615L185.18 182.187C185.025 182.311 184.9 182.467 184.813 182.643C184.726 182.819 184.678 183.011 184.673 183.207C184.669 183.402 184.707 183.597 184.786 183.776C184.865 183.956 184.983 184.117 185.131 184.248L196.738 194.526C197.066 194.816 197.491 194.978 197.932 194.98C198.373 194.982 198.799 194.825 199.13 194.538L225.757 171.431C225.929 171.282 226.066 171.097 226.158 170.89C226.249 170.683 226.293 170.459 226.287 170.233C226.281 170.007 226.224 169.786 226.121 169.584C226.018 169.382 225.871 169.205 225.69 169.065L224.367 168.039C224.239 167.94 224.081 167.885 223.918 167.883C223.755 167.88 223.595 167.931 223.465 168.026C223.349 168.111 223.208 168.155 223.064 168.153C222.92 168.151 222.781 168.102 222.668 168.015L216.387 163.146C216.166 162.974 216.019 162.727 215.975 162.453C215.931 162.18 215.995 161.9 216.152 161.67L216.152 161.67Z" fill="#2F2E41"/>
</svg>
